<svg xmlns="http://www.w3.org/2000/svg" width="112" height="32" viewBox="0 0 112 32" fill="none">
  <g clip-path="url(#clip0_6612_20568)">
    <path d="M30.9726 29.9254C30.8447 29.8375 30.7499 29.7099 30.7034 29.5627C30.6414 29.3789 30.6123 29.1858 30.6172 28.992V26.176C30.6172 25.744 30.6172 25.3174 30.6172 24.8907H31.0695V28.8587C31.0672 28.9857 31.078 29.1126 31.1019 29.2374C31.1138 29.3301 31.1531 29.4173 31.2149 29.488C31.2502 29.5222 31.2926 29.5484 31.339 29.565C31.3855 29.5816 31.435 29.5881 31.4842 29.584C31.5486 29.5905 31.6136 29.5905 31.678 29.584L31.7695 30.0427C31.6736 30.0606 31.5764 30.0713 31.4788 30.0747C31.2987 30.0765 31.1223 30.0245 30.9726 29.9254Z" fill="#1F1F1F"/>
    <path d="M34.5102 29.9574H34.0633V27.152H33.7563L33.8533 26.7147H34.5102V29.9574ZM34.5102 25.504V26.0854H33.934V25.5094L34.5102 25.504Z" fill="#1F1F1F"/>
    <path d="M38.4086 29.9573H37.8702L36.4917 26.7094H36.9871L37.924 29.0134L38.1932 29.7174H38.0694L38.3386 29.0134L39.2755 26.7094H39.7925L38.4086 29.9573Z" fill="#1F1F1F"/>
    <path d="M42.5331 29.9574H42.0862V27.152H41.7793L41.8762 26.7147H42.5331V29.9574ZM42.5331 25.504V26.0854H41.957V25.5094L42.5331 25.504Z" fill="#1F1F1F"/>
    <path d="M44.5364 29.9573V26.9173C44.7182 26.8204 44.9094 26.7418 45.1071 26.6827C45.3064 26.6356 45.5109 26.6141 45.7156 26.6187C45.9352 26.6001 46.1564 26.625 46.3662 26.6919C46.576 26.7587 46.7704 26.8662 46.9379 27.008C47.2037 27.2993 47.343 27.6825 47.3256 28.0747C47.3256 28.6969 47.3256 29.3209 47.3256 29.9467H46.8518C46.8518 29.3653 46.8518 28.784 46.8518 28.208C46.8809 27.8987 46.7905 27.5899 46.5987 27.344C46.4881 27.2504 46.3596 27.1799 46.2207 27.1368C46.0819 27.0937 45.9357 27.0789 45.791 27.0933C45.6373 27.0899 45.4837 27.1042 45.3333 27.136C45.2234 27.1519 45.1186 27.192 45.0264 27.2533V29.92L44.5364 29.9573Z" fill="#1F1F1F"/>
    <path d="M49.512 27.44C49.6464 27.1898 49.85 26.9826 50.0989 26.8427C50.3613 26.6952 50.6587 26.6197 50.9604 26.624C51.2127 26.6214 51.4614 26.6839 51.682 26.8054C51.8744 26.8955 52.0301 27.0479 52.1235 27.2374V26.7947V26.7094H52.6027C52.6027 27.776 52.6027 28.8587 52.6027 29.9573C52.6088 30.2489 52.5344 30.5366 52.3873 30.7894C52.2452 31.0288 52.0406 31.2259 51.795 31.36C51.5341 31.5004 51.2412 31.572 50.9443 31.568C50.4504 31.5741 49.9701 31.4079 49.5873 31.0987L49.8135 30.704C49.9639 30.8299 50.1352 30.9291 50.3197 30.9974C50.52 31.0681 50.7316 31.1024 50.9443 31.0987C51.1605 31.1009 51.3743 31.0534 51.5689 30.96C51.7472 30.8685 51.895 30.7277 51.9943 30.5547C52.1004 30.3734 52.1544 30.1669 52.1504 29.9573V29.904V29.4614C52.1074 29.5587 52.0452 29.6465 51.9676 29.7197C51.8899 29.793 51.7983 29.8502 51.6981 29.888C51.4667 29.9932 51.2151 30.0478 50.9604 30.048C50.6567 30.0516 50.3581 29.9703 50.0989 29.8134C49.8508 29.6583 49.6484 29.4412 49.512 29.184C49.3679 28.9243 49.2938 28.6323 49.2966 28.336C49.2898 28.024 49.364 27.7155 49.512 27.44ZM51.5743 29.4187C51.7568 29.3092 51.9057 29.1524 52.005 28.9653C52.109 28.7716 52.1626 28.5554 52.1612 28.336C52.1638 28.1165 52.11 27.9 52.005 27.7067C51.9016 27.5236 51.7511 27.3709 51.5689 27.264C51.3805 27.1518 51.164 27.0945 50.9443 27.0987C50.7348 27.0972 50.5286 27.1506 50.3466 27.2534C50.1689 27.3608 50.0239 27.5137 49.9266 27.696C49.824 27.8941 49.7706 28.1134 49.7706 28.336C49.7706 28.5586 49.824 28.778 49.9266 28.976C50.0239 29.1583 50.1689 29.3112 50.3466 29.4187C50.5271 29.5255 50.734 29.5809 50.9443 29.5787C51.1648 29.5814 51.3822 29.5262 51.5743 29.4187Z" fill="#1F1F1F"/>
    <path d="M58.068 29.9573C57.8198 29.8534 57.5988 29.6947 57.4219 29.4933L57.7288 29.168C57.8834 29.3203 58.0662 29.4416 58.2673 29.5253C58.4702 29.609 58.6882 29.6507 58.908 29.648C59.1307 29.6577 59.3524 29.6138 59.5542 29.52C59.6309 29.4852 59.6953 29.4286 59.7394 29.3573C59.7836 29.2861 59.8053 29.2035 59.8019 29.12C59.8015 29.0503 59.7817 28.982 59.7446 28.9227C59.7076 28.8634 59.6547 28.8154 59.5919 28.784C59.4105 28.6856 59.214 28.6171 59.0103 28.5813L58.7411 28.528C58.4404 28.4753 58.1553 28.3568 57.9065 28.1813C57.8121 28.1041 57.7376 28.0059 57.6889 27.8946C57.6402 27.7834 57.6188 27.6623 57.6265 27.5413C57.6237 27.3645 57.6806 27.1919 57.788 27.0507C57.9073 26.9047 58.0633 26.7925 58.2403 26.7253C58.4437 26.6435 58.6617 26.6036 58.8811 26.608C59.1074 26.6052 59.3321 26.6451 59.5434 26.7253C59.7758 26.8229 59.989 26.9601 60.1734 27.1307L59.8611 27.44C59.7333 27.3151 59.5813 27.2171 59.4142 27.152C59.2418 27.0896 59.0593 27.0588 58.8757 27.0613C58.6884 27.06 58.5036 27.104 58.3373 27.1893C58.2698 27.2175 58.2117 27.264 58.1698 27.3234C58.1278 27.3829 58.1038 27.4529 58.1003 27.5253C58.0981 27.5961 58.1136 27.6663 58.1456 27.7296C58.1776 27.7929 58.2249 27.8473 58.2834 27.888C58.4474 27.9886 58.6308 28.054 58.8219 28.08L59.0803 28.128C59.394 28.179 59.6931 28.2953 59.958 28.4693C60.0621 28.5415 60.1462 28.6385 60.2026 28.7512C60.2591 28.864 60.2861 28.9889 60.2811 29.1147C60.292 29.2601 60.2638 29.4057 60.1995 29.5368C60.1352 29.668 60.037 29.7799 59.9149 29.8613C59.612 30.0313 59.2666 30.1126 58.9188 30.096C58.6288 30.1049 58.3398 30.0578 58.068 29.9573Z" fill="#1F1F1F"/>
    <path d="M64.761 26.8427C65.0102 26.9853 65.2122 27.1965 65.3425 27.4507C65.4868 27.7235 65.5591 28.0281 65.5525 28.336C65.5559 28.6358 65.4818 28.9314 65.3371 29.1947C65.1987 29.4507 64.9943 29.666 64.7448 29.8187C64.489 29.9737 64.1939 30.0532 63.894 30.048C63.6368 30.0503 63.3825 29.9938 63.151 29.8827C62.9542 29.7995 62.7952 29.6477 62.704 29.456V29.8987V31.4987H62.241V26.7307H62.7256V26.8053V27.248C62.8244 27.0651 62.9789 26.9177 63.1671 26.8267C63.3903 26.707 63.6402 26.6447 63.894 26.6453C64.1955 26.6346 64.4945 26.7026 64.761 26.8427ZM64.5133 29.4187C64.6896 29.309 64.8329 29.1542 64.9279 28.9707C65.0306 28.7748 65.0824 28.5567 65.0787 28.336C65.0831 28.1153 65.0313 27.897 64.9279 27.7013C64.8341 27.5183 64.6905 27.365 64.5133 27.2587C64.3296 27.1499 64.1188 27.0945 63.9048 27.0987C63.6851 27.0951 63.4688 27.1523 63.2802 27.264C63.0968 27.3701 62.9475 27.5254 62.8494 27.712C62.7471 27.9034 62.6936 28.1167 62.6936 28.3333C62.6936 28.5499 62.7471 28.7633 62.8494 28.9547C62.9526 29.1476 63.108 29.3082 63.2982 29.4185C63.4885 29.5287 63.706 29.5842 63.9264 29.5787C64.133 29.5789 64.3359 29.5236 64.5133 29.4187Z" fill="#1F1F1F"/>
    <path d="M69.9464 26.8054C70.1363 26.8972 70.2898 27.0492 70.3825 27.2374V26.7947V26.7094H70.8671V29.9574H70.4041V29.904V29.4614C70.3104 29.6487 70.1518 29.7964 69.9571 29.8774C69.729 29.9932 69.4757 30.0518 69.2194 30.048C68.9215 30.0511 68.6286 29.9725 68.373 29.821C68.1173 29.6695 67.909 29.4509 67.771 29.1894C67.6263 28.928 67.5521 28.6341 67.5556 28.336C67.5488 28.024 67.623 27.7155 67.771 27.44C67.9039 27.1887 68.1079 26.9811 68.3579 26.8427C68.6203 26.6952 68.9177 26.6197 69.2194 26.624C69.4737 26.6195 69.7246 26.6821 69.9464 26.8054ZM69.8279 29.4134C70.0104 29.3038 70.1594 29.1471 70.2587 28.96C70.366 28.7693 70.4217 28.5544 70.4202 28.336C70.4229 28.1176 70.3672 27.9023 70.2587 27.712C70.1606 27.5254 70.0113 27.3701 69.8279 27.264C69.6395 27.1518 69.4231 27.0945 69.2033 27.0987C68.9927 27.0931 68.7848 27.1468 68.6037 27.2534C68.4227 27.3601 68.2758 27.5154 68.1802 27.7014C68.0768 27.897 68.025 28.1153 68.0295 28.336C68.0257 28.5567 68.0775 28.7748 68.1802 28.9707C68.2769 29.1531 68.4198 29.3074 68.5948 29.4187C68.7788 29.5267 68.9894 29.5821 69.2033 29.5787C69.4285 29.5859 69.651 29.5285 69.8441 29.4134H69.8279Z" fill="#1F1F1F"/>
    <path d="M75.3311 29.92C75.092 30.0243 74.8332 30.0771 74.5719 30.0747C74.2702 30.079 73.9728 30.0035 73.7103 29.856C73.4561 29.7082 73.2475 29.4942 73.1073 29.2374C72.9599 28.9635 72.8858 28.6569 72.8919 28.3467C72.8843 28.0339 72.9604 27.7248 73.1126 27.4507C73.2559 27.197 73.4663 26.9868 73.7211 26.8427C73.9802 26.6965 74.2737 26.6211 74.5719 26.624C74.833 26.6232 75.0915 26.6759 75.3311 26.7787C75.5611 26.8727 75.7631 27.0232 75.918 27.216L75.6003 27.5413C75.4791 27.3971 75.3263 27.2822 75.1534 27.2054C74.9704 27.1245 74.7723 27.0827 74.5719 27.0827C74.3583 27.0812 74.1482 27.1365 73.9634 27.2427C73.7759 27.3529 73.6201 27.509 73.5111 27.696C73.3982 27.8944 73.3406 28.119 73.3442 28.3467C73.3387 28.579 73.3944 28.8088 73.5057 29.0134C73.6062 29.2018 73.7595 29.3573 73.9473 29.4614C74.1376 29.5682 74.3531 29.6234 74.5719 29.6214C74.771 29.6204 74.9676 29.5767 75.148 29.4933C75.3215 29.4198 75.4761 29.3086 75.6003 29.168L75.918 29.488C75.7624 29.6789 75.5605 29.8275 75.3311 29.92Z" fill="#1F1F1F"/>
    <path d="M80.3766 29.92C80.1358 30.0252 79.8751 30.078 79.6119 30.0747C79.3087 30.0777 79.0099 30.0023 78.745 29.856C78.4927 29.7074 78.2861 29.4935 78.1473 29.2373C78.0058 28.9604 77.9321 28.6544 77.9321 28.344C77.9321 28.0336 78.0058 27.7276 78.1473 27.4507C78.2847 27.1998 78.4874 26.9899 78.7343 26.8427C78.9913 26.6965 79.2832 26.621 79.5796 26.624C79.8745 26.6196 80.165 26.6952 80.4196 26.8427C80.6685 26.9826 80.8721 27.1898 81.0066 27.44C81.1563 27.7074 81.2324 28.009 81.2273 28.3147C81.2316 28.3804 81.2316 28.4463 81.2273 28.512H78.4004C78.4096 28.7248 78.4766 28.9311 78.5942 29.1093C78.7012 29.27 78.8501 29.399 79.025 29.4827C79.2066 29.5651 79.4041 29.6078 79.6039 29.6078C79.8036 29.6078 80.0011 29.5651 80.1827 29.4827C80.3584 29.4132 80.5126 29.2992 80.6296 29.152L80.9581 29.4827C80.8064 29.6765 80.6058 29.8273 80.3766 29.92ZM80.5435 27.568C80.4375 27.4165 80.295 27.2936 80.1289 27.2107C79.9611 27.13 79.7769 27.0881 79.5904 27.0881C79.4039 27.0881 79.2198 27.13 79.0519 27.2107C78.8868 27.2951 78.7446 27.4177 78.6373 27.568C78.5253 27.7252 78.4583 27.9095 78.4435 28.1013H80.7642C80.7349 27.9086 80.6592 27.7257 80.5435 27.568Z" fill="#1F1F1F"/>
    <path d="M3.71569 2.92268V7.95202H11.4103V10.6187H3.71569V16.5974H0.269531V0.282684H12.4172V2.92268H3.71569Z" fill="#1F1F1F"/>
    <path d="M61.2986 16.576V0.282684H74.7117V2.92268H64.7394V7.01335H73.5163V9.64801H64.7394V13.9147H74.7117V16.5493L61.2986 16.576Z" fill="#1F1F1F"/>
    <path d="M93.2511 11.792C93.2845 12.4861 93.1377 13.177 92.8248 13.7989C92.5118 14.4207 92.0431 14.9527 91.4634 15.344C90.268 16.1654 88.5144 16.576 86.2026 16.576C84.0918 16.576 82.4334 16.2134 81.2434 15.5094C80.6495 15.1533 80.137 14.6788 79.7384 14.116C79.3398 13.5531 79.0638 12.9143 78.928 12.24L82.2557 11.7067C82.3403 12.083 82.5008 12.4385 82.7274 12.752C82.9541 13.0654 83.2424 13.3303 83.5749 13.5307C84.4163 13.9501 85.3535 14.1449 86.2941 14.096C88.6993 14.096 89.9018 13.3849 89.9018 11.9627C89.9099 11.7598 89.8774 11.5574 89.8062 11.3671C89.7351 11.1767 89.6267 11.0021 89.4872 10.8534C89.1592 10.5245 88.7595 10.2746 88.3187 10.1227C87.3763 9.81384 86.4115 9.57671 85.4326 9.41336C84.2049 9.13602 83.3488 8.9138 82.8641 8.74669C82.4093 8.59053 81.971 8.39046 81.5557 8.14935C81.1805 7.93146 80.8454 7.65191 80.5649 7.32269C80.2837 6.98842 80.0681 6.60491 79.9295 6.19202C79.7712 5.70822 79.6948 5.20184 79.7034 4.69335C79.6722 4.04911 79.8101 3.40786 80.1036 2.8321C80.397 2.25634 80.8361 1.76571 81.378 1.40802C82.4926 0.650689 84.1188 0.266685 86.2511 0.266685C88.2864 0.266685 89.8211 0.576021 90.8441 1.18935C91.3732 1.52858 91.8232 1.97569 92.1639 2.50084C92.5047 3.02598 92.7285 3.61708 92.8203 4.23469L89.4818 4.67202C89.3491 4.04473 88.9742 3.49359 88.4372 3.13602C87.7536 2.74443 86.9695 2.55906 86.1811 2.60269C84.0918 2.60269 83.0526 3.23202 83.0526 4.49069C83.036 4.85489 83.1527 5.21279 83.3811 5.49869C83.656 5.79371 83.9947 6.02342 84.3718 6.17069C85.2357 6.46737 86.1214 6.69739 87.0211 6.85869C88.175 7.06328 89.3098 7.36299 90.4134 7.75469C91.0048 7.97534 91.5518 8.29862 92.0287 8.70935C92.4243 9.07216 92.7349 9.51633 92.9387 10.0107C93.1616 10.5779 93.2677 11.1836 93.2511 11.792Z" fill="#1F1F1F"/>
    <path d="M106.228 2.92269V16.5707H102.792V2.92269H97.4778V0.288017H111.559V2.92269H106.228Z" fill="#1F1F1F"/>
    <path d="M31.0317 10.0267L32.254 11.3654C32.271 11.382 32.2919 11.3943 32.3148 11.401C32.3377 11.4078 32.362 11.4089 32.3854 11.4041C32.4089 11.3994 32.4308 11.389 32.4492 11.3738C32.4676 11.3587 32.4819 11.3393 32.4909 11.3174C32.6623 10.8641 32.792 10.3964 32.8786 9.92003C32.8836 9.89606 32.883 9.87127 32.8768 9.84759C32.8706 9.8239 32.8589 9.80194 32.8428 9.78339C32.8267 9.76485 32.8065 9.75022 32.7838 9.74062C32.761 9.73102 32.7364 9.72671 32.7117 9.72803L31.0963 9.79737C31.073 9.80368 31.0516 9.81588 31.0345 9.8328C31.0173 9.84971 31.0048 9.87076 30.9983 9.89387C30.9918 9.91698 30.9915 9.94137 30.9973 9.96465C31.0032 9.98793 31.015 10.0093 31.0317 10.0267Z" fill="#1F1F1F"/>
    <path d="M25.6362 10.1974L25.9539 16.3147C25.9558 16.3375 25.9625 16.3596 25.9735 16.3797C25.9845 16.3998 25.9996 16.4174 26.0178 16.4315C26.036 16.4455 26.057 16.4556 26.0793 16.4612C26.1017 16.4668 26.125 16.4678 26.1478 16.464C27.4366 16.2563 28.6567 15.7467 29.7066 14.9777C30.7565 14.2086 31.6059 13.2024 32.1839 12.0427C32.2206 11.9657 32.2325 11.8794 32.218 11.7954C32.2036 11.7115 32.1635 11.634 32.1032 11.5734L30.4878 9.97335C30.4468 9.93341 30.3978 9.90236 30.3441 9.88216C30.2903 9.86196 30.2329 9.85306 30.1755 9.85602L25.7978 10.0427C25.7558 10.0427 25.7155 10.0588 25.6854 10.0876C25.6553 10.1165 25.6376 10.1559 25.6362 10.1974Z" fill="#1F1F1F"/>
    <path d="M17.5703 12.2187C18.1927 13.3943 19.0962 14.4012 20.2019 15.1514C21.3075 15.9017 22.5818 16.3725 23.9134 16.5227C23.9367 16.5249 23.9601 16.5223 23.9823 16.515C24.0044 16.5077 24.0248 16.4959 24.042 16.4803C24.0593 16.4647 24.0731 16.4457 24.0824 16.4245C24.0918 16.4034 24.0966 16.3805 24.0965 16.3573C24.0965 14.6453 24.1503 11.76 24.1665 11.264C24.1674 11.2409 24.163 11.2178 24.1536 11.1966C24.1443 11.1754 24.1303 11.1565 24.1126 11.1413L22.1634 9.34934C22.1386 9.32946 22.1088 9.31657 22.0773 9.31201L20.8711 9.12001C20.8473 9.11657 20.823 9.11811 20.7998 9.12454C20.7766 9.13097 20.7551 9.14215 20.7365 9.15734C20.4134 9.44534 18.8088 10.8747 17.6026 12.0267C17.5759 12.0502 17.5581 12.0821 17.5522 12.117C17.5463 12.152 17.5527 12.1878 17.5703 12.2187Z" fill="#1F1F1F"/>
    <path d="M25.9272 9.06135L32.8303 9.26935C32.8728 9.26943 32.9137 9.25349 32.9447 9.22475C32.9757 9.19602 32.9945 9.15665 32.9972 9.11468C32.9972 8.89601 33.0241 8.67735 33.0241 8.45335C33.0232 7.8104 32.9473 7.16971 32.798 6.54401C32.7911 6.51785 32.7775 6.49385 32.7587 6.47427C32.7399 6.45468 32.7163 6.44014 32.6903 6.43201L28.5495 4.98668C28.5154 4.97495 28.4783 4.97488 28.4441 4.98648C28.41 4.99808 28.3807 5.02068 28.3611 5.05068L25.7926 8.78401C25.7698 8.80836 25.7549 8.83894 25.7499 8.87177C25.7449 8.90461 25.75 8.93817 25.7645 8.96809C25.7791 8.99802 25.8023 9.02292 25.8314 9.03955C25.8604 9.05619 25.8938 9.06378 25.9272 9.06135Z" fill="#1F1F1F"/>
    <path d="M29.3086 4.15468L32.0763 5.30135C32.1063 5.31386 32.1393 5.31714 32.1711 5.31077C32.203 5.3044 32.2321 5.28867 32.2548 5.26564C32.2775 5.2426 32.2926 5.21333 32.2982 5.18165C32.3039 5.14996 32.2997 5.11733 32.2863 5.08801C31.8324 4.10036 31.1823 3.21339 30.3748 2.48002C30.3574 2.46381 30.3366 2.45164 30.3138 2.44437C30.2911 2.4371 30.267 2.43492 30.2433 2.43798C30.2196 2.44104 30.1969 2.44927 30.1768 2.46207C30.1567 2.47487 30.1397 2.49193 30.1271 2.51202L29.2333 3.91468C29.2213 3.93512 29.2137 3.95779 29.211 3.98127C29.2084 4.00475 29.2107 4.02852 29.2177 4.05108C29.2248 4.07364 29.2366 4.0945 29.2522 4.11233C29.2679 4.13017 29.2871 4.14459 29.3086 4.15468Z" fill="#1F1F1F"/>
    <path d="M24.7154 2.23468C24.6422 2.33473 24.6113 2.45909 24.6292 2.58135L25.2808 6.88535C25.2848 6.91718 25.2983 6.94708 25.3197 6.97119C25.341 6.9953 25.3692 7.01249 25.4006 7.02054C25.4319 7.02859 25.465 7.02712 25.4955 7.01633C25.5259 7.00554 25.5525 6.98592 25.5716 6.96002L29.5077 2.00001C29.5211 1.98229 29.5308 1.96207 29.5362 1.94055C29.5416 1.91903 29.5426 1.89666 29.5391 1.87477C29.5356 1.85288 29.5276 1.83191 29.5158 1.81311C29.5039 1.79432 29.4883 1.77807 29.47 1.76535C28.527 1.12323 27.4569 0.686924 26.3308 0.48535C26.2403 0.470502 26.1473 0.481127 26.0626 0.516014C25.9779 0.550901 25.9048 0.60865 25.8516 0.682685L24.7154 2.23468Z" fill="#1F1F1F"/>
    <path d="M24.3226 0.533352L24.4895 1.63736C24.4915 1.65327 24.4983 1.66822 24.509 1.68028C24.5196 1.69233 24.5337 1.70093 24.5494 1.70495C24.5651 1.70897 24.5816 1.70824 24.5968 1.70284C24.6121 1.69745 24.6254 1.68764 24.6349 1.67469L25.5449 0.485354C25.555 0.474248 25.5618 0.460559 25.5644 0.445839C25.5671 0.43112 25.5655 0.41596 25.5599 0.402077C25.5543 0.388195 25.5449 0.376147 25.5327 0.367299C25.5205 0.358452 25.5061 0.353158 25.4911 0.35202C25.2703 0.35202 25.0495 0.35202 24.8287 0.35202H24.4787C24.4563 0.353348 24.4344 0.359147 24.4143 0.369069C24.3942 0.378992 24.3763 0.392835 24.3617 0.409768C24.3471 0.4267 24.3361 0.446372 24.3294 0.467609C24.3227 0.488845 24.3204 0.511205 24.3226 0.533352Z" fill="#1F1F1F"/>
    <path d="M19.4385 2.69869L23.7462 3.32802C23.7708 3.33126 23.7958 3.32903 23.8195 3.32148C23.8431 3.31394 23.8647 3.30128 23.8827 3.28442C23.9008 3.26757 23.9148 3.24693 23.9238 3.22403C23.9328 3.20113 23.9365 3.17653 23.9347 3.15202L23.7409 0.58669C23.7389 0.564435 23.7324 0.542807 23.7217 0.523116C23.711 0.503424 23.6965 0.486076 23.6788 0.472119C23.6612 0.458162 23.641 0.447885 23.6192 0.441911C23.5975 0.435936 23.5747 0.434388 23.5524 0.437357C21.9812 0.677407 20.5145 1.36488 19.3309 2.41602C19.3079 2.4385 19.292 2.46708 19.2851 2.49831C19.2782 2.52955 19.2806 2.56209 19.292 2.592C19.3034 2.62192 19.3233 2.64791 19.3493 2.66685C19.3753 2.68578 19.4063 2.69685 19.4385 2.69869Z" fill="#1F1F1F"/>
    <path d="M17.7478 4.65602L23.9078 9.13069C23.9306 9.15092 23.9587 9.16433 23.9889 9.16936C24.0191 9.17439 24.05 9.17083 24.0783 9.1591C24.1065 9.14736 24.1307 9.12794 24.1482 9.10308C24.1657 9.07823 24.1757 9.04896 24.1771 9.01869V4.37869C24.1771 4.34223 24.165 4.30677 24.1426 4.27783C24.1202 4.24889 24.0888 4.2281 24.0532 4.21869L18.954 2.93336C18.9253 2.9252 18.8948 2.92539 18.8661 2.9339C18.8375 2.94241 18.8119 2.95888 18.7925 2.98136C18.3777 3.42755 18.0163 3.9197 17.7155 4.44802C17.6946 4.4807 17.6864 4.51978 17.6923 4.55803C17.6982 4.59627 17.718 4.63108 17.7478 4.65602Z" fill="#1F1F1F"/>
    <path d="M16.8325 7.64802L20.9463 8.35202C20.9816 8.3559 21.0171 8.34858 21.0479 8.33111C21.0786 8.31364 21.1029 8.28693 21.1173 8.25485C21.1317 8.22277 21.1354 8.18698 21.1279 8.15268C21.1204 8.11837 21.1021 8.08732 21.0756 8.06402L17.5917 5.17335C17.572 5.15714 17.5487 5.14564 17.5238 5.13976C17.4988 5.13388 17.4729 5.13377 17.4479 5.13945C17.4229 5.14512 17.3995 5.15642 17.3797 5.17248C17.3598 5.18853 17.3439 5.20891 17.3333 5.23202C17.0203 5.94499 16.8153 6.69978 16.7248 7.47202C16.719 7.50922 16.7266 7.54726 16.7463 7.57945C16.766 7.61164 16.7965 7.63592 16.8325 7.64802Z" fill="#1F1F1F"/>
    <path d="M16.6388 8.45334C16.6376 9.51822 16.8481 10.5729 17.258 11.5573C17.2684 11.5831 17.2854 11.6058 17.3073 11.6232C17.3292 11.6405 17.3553 11.6519 17.3831 11.6562C17.4108 11.6605 17.4391 11.6576 17.4654 11.6477C17.4916 11.6379 17.5148 11.6214 17.5326 11.6L19.6434 9.25334C19.6616 9.23231 19.6742 9.20707 19.68 9.17995C19.6859 9.15282 19.6847 9.12469 19.6766 9.09813C19.6686 9.07158 19.6539 9.04745 19.634 9.02798C19.6141 9.0085 19.5896 8.9943 19.5626 8.98668L16.838 8.29868C16.8143 8.29191 16.7892 8.29081 16.765 8.29549C16.7407 8.30017 16.7179 8.31048 16.6985 8.32558C16.679 8.34067 16.6635 8.36013 16.6531 8.38234C16.6427 8.40455 16.6378 8.42889 16.6388 8.45334Z" fill="#1F1F1F"/>
    <path d="M57.0773 16.576H53.9703L53.518 15.8774L49.9319 10.3573C50.5973 9.98659 51.1813 9.48795 51.6496 8.89068C52.4861 7.82441 52.9305 6.50752 52.9096 5.15735C52.953 4.2792 52.7858 3.40335 52.4217 2.60149C52.0576 1.79964 51.507 1.09458 50.815 0.544019C50.7073 0.458686 50.5996 0.378687 50.4865 0.30402C51.9771 0.262664 53.4412 0.7005 54.6596 1.55202C55.1978 1.98337 55.6249 2.53515 55.9057 3.16195C56.1866 3.78875 56.3131 4.47265 56.275 5.15735C56.2986 6.22419 55.9527 7.26688 55.295 8.11202C54.6318 8.9462 53.6943 9.52369 52.6457 9.74402L57.0773 16.576Z" fill="#1F1F1F"/>
    <path d="M48.4079 10.3894L47.9771 9.72802C49.0258 9.50769 49.9632 8.93019 50.6264 8.09602C50.7426 7.9455 50.8504 7.78883 50.9495 7.62669C51.3967 6.87456 51.6242 6.01409 51.6064 5.14136C51.6206 4.44922 51.4923 3.76147 51.2295 3.12002C50.968 2.4913 50.5469 1.94016 50.0071 1.52002C48.9302 0.688022 47.4279 0.266685 45.4679 0.266685H37.2456V16.56H40.6918V10.3734H44.7248L45.3441 11.376L48.5425 16.56H52.4195L48.4079 10.3894ZM47.3956 7.09335C46.8113 7.54002 46.0869 7.7685 45.3495 7.73869H40.6971V2.93869H45.3495C47.2125 3.00269 48.1387 3.78669 48.1387 5.28535C48.1564 5.62276 48.0985 5.95987 47.9691 6.27248C47.8397 6.58508 47.642 6.86542 47.3902 7.09335H47.3956Z" fill="#1F1F1F"/>
  </g>
  <defs>
    <clipPath id="clip0_6612_20568">
      <rect width="112" height="32" fill="white"/>
    </clipPath>
  </defs>
</svg>