<svg width="56" height="28" viewBox="0 0 56 28" fill="none" xmlns="http://www.w3.org/2000/svg">
<rect width="56" height="28" rx="14" fill="#717386"/>
<path d="M11.054 19V18.1051L14.4148 14.4261C14.8092 13.9953 15.134 13.6207 15.3892 13.3026C15.6444 12.9811 15.8333 12.6795 15.956 12.3977C16.0819 12.1127 16.1449 11.8144 16.1449 11.5028C16.1449 11.1449 16.0587 10.835 15.8864 10.5732C15.7173 10.3113 15.4853 10.1091 15.1903 9.96662C14.8954 9.8241 14.5639 9.75284 14.196 9.75284C13.8049 9.75284 13.4635 9.83404 13.1719 9.99645C12.8835 10.1555 12.6598 10.3793 12.5007 10.6676C12.3449 10.956 12.267 11.294 12.267 11.6818H11.0938C11.0938 11.0852 11.2313 10.5616 11.5064 10.1108C11.7815 9.66004 12.156 9.30871 12.63 9.05682C13.1072 8.80492 13.6425 8.67898 14.2358 8.67898C14.8324 8.67898 15.361 8.80492 15.8217 9.05682C16.2824 9.30871 16.6437 9.64844 16.9055 10.076C17.1674 10.5036 17.2983 10.9792 17.2983 11.5028C17.2983 11.8774 17.2304 12.2436 17.0945 12.6016C16.9619 12.9562 16.7299 13.3523 16.3984 13.7898C16.0703 14.224 15.6146 14.7543 15.0312 15.3807L12.7443 17.8267V17.9062H17.4773V19H11.054ZM22.4324 19.1392C21.849 19.1392 21.3237 19.0232 20.8564 18.7912C20.389 18.5592 20.0145 18.241 19.7328 17.8366C19.4511 17.4323 19.2969 16.9716 19.2704 16.4545H20.4636C20.51 16.9152 20.7188 17.2964 21.09 17.598C21.4646 17.8963 21.912 18.0455 22.4324 18.0455C22.85 18.0455 23.2212 17.9477 23.546 17.7521C23.8741 17.5566 24.131 17.2881 24.3166 16.9467C24.5055 16.602 24.6 16.2126 24.6 15.7784C24.6 15.3343 24.5022 14.9382 24.3066 14.5902C24.1144 14.2389 23.8493 13.9621 23.5112 13.7599C23.1731 13.5578 22.787 13.455 22.3528 13.4517C22.0413 13.4484 21.7214 13.4964 21.3933 13.5959C21.0652 13.692 20.795 13.8163 20.5829 13.9688L19.4295 13.8295L20.046 8.81818H25.3358V9.91193H21.0801L20.7221 12.9148H20.7818C20.9906 12.7491 21.2524 12.6115 21.5673 12.5021C21.8822 12.3928 22.2103 12.3381 22.5517 12.3381C23.1748 12.3381 23.7299 12.4872 24.2172 12.7855C24.7077 13.0805 25.0922 13.4848 25.3706 13.9986C25.6523 14.5123 25.7932 15.099 25.7932 15.7585C25.7932 16.4081 25.6473 16.9882 25.3557 17.4986C25.0673 18.0057 24.6696 18.4067 24.1625 18.7017C23.6554 18.9934 23.0787 19.1392 22.4324 19.1392ZM30.8091 19.1392C30.0601 19.1392 29.4221 18.9354 28.8951 18.5277C28.3681 18.1167 27.9654 17.5218 27.687 16.7429C27.4086 15.9607 27.2694 15.0161 27.2694 13.9091C27.2694 12.8087 27.4086 11.8691 27.687 11.0902C27.9687 10.308 28.3731 9.71141 28.9001 9.30043C29.4304 8.88613 30.0667 8.67898 30.8091 8.67898C31.5516 8.67898 32.1863 8.88613 32.7133 9.30043C33.2436 9.71141 33.6479 10.308 33.9263 11.0902C34.2081 11.8691 34.3489 12.8087 34.3489 13.9091C34.3489 15.0161 34.2097 15.9607 33.9313 16.7429C33.6529 17.5218 33.2502 18.1167 32.7232 18.5277C32.1962 18.9354 31.5582 19.1392 30.8091 19.1392ZM30.8091 18.0455C31.5516 18.0455 32.1283 17.6875 32.5393 16.9716C32.9502 16.2557 33.1557 15.2348 33.1557 13.9091C33.1557 13.0275 33.0613 12.2768 32.8724 11.657C32.6867 11.0372 32.4183 10.5649 32.067 10.2401C31.7189 9.91525 31.2997 9.75284 30.8091 9.75284C30.0733 9.75284 29.4983 10.1158 29.084 10.8416C28.6697 11.5642 28.4626 12.5866 28.4626 13.9091C28.4626 14.7907 28.5554 15.5398 28.741 16.1562C28.9266 16.7727 29.1934 17.2417 29.5414 17.5632C29.8927 17.8847 30.3153 18.0455 30.8091 18.0455ZM40.1541 17.4091L42.8189 11.3636H43.9325L40.6314 19H39.6769L36.4354 11.3636H37.5291L40.1541 17.4091ZM37.1513 11.3636V19H35.978V11.3636H37.1513ZM43.157 19V11.3636H44.3303V19H43.157Z" fill="white"/>
</svg>
