<svg width="60" height="60" viewBox="0 0 60 60" fill="none" xmlns="http://www.w3.org/2000/svg">
<path d="M0 30C0 13.4315 13.4315 0 30 0V0C46.5685 0 60 13.4315 60 30V30C60 46.5685 46.5685 60 30 60V60C13.4315 60 0 46.5685 0 30V30Z" fill="white"/>
<g clip-path="url(#clip0_963_720)">
<path d="M19.7605 46.5837H19.473V47.2167H19.2057V46.5837H18.9183L18.5087 47.2167H18.1882L18.6984 46.4431L18.227 45.7191H18.5145L18.9154 46.352H19.2029V45.7191H19.473V46.352H19.7605L20.1614 45.7191H20.4489L19.9789 46.4431L20.4877 47.2136H20.1744L19.7605 46.5837Z" fill="#3D352F"/>
<path d="M20.791 45.7206H21.054V46.8095L21.9652 45.7206H22.2081V47.2166H21.945V46.1273L21.0382 47.2166H20.791V45.7206Z" fill="#3D352F"/>
<path d="M23.8419 45.9581H23.2986V47.2166H23.0299V45.9581H22.491V45.7206H23.8419V45.9581Z" fill="#3D352F"/>
<path d="M25.2963 45.7206V47.2166H25.0276V45.9581H24.388L24.3722 46.291C24.3659 46.4603 24.3482 46.6286 24.3191 46.795C24.3007 46.9113 24.2565 47.0215 24.1897 47.1181C24.1618 47.1578 24.1244 47.1898 24.0809 47.211C24.0374 47.2323 23.9894 47.2421 23.9411 47.2397C23.8846 47.2384 23.8286 47.2298 23.7744 47.2135L23.7916 46.9849C23.8138 46.9901 23.8364 46.9932 23.8592 46.9935C23.8936 46.9947 23.9276 46.9861 23.9574 46.9686C23.9871 46.9514 24.0114 46.9258 24.0273 46.895C24.0668 46.8224 24.0917 46.7427 24.1006 46.6603C24.1107 46.5707 24.1222 46.4418 24.1308 46.2738L24.1567 45.7206H25.2963Z" fill="#3D352F"/>
<path d="M26.0566 47.1354C25.9417 47.0717 25.8462 46.9775 25.7806 46.863C25.7146 46.7424 25.6799 46.607 25.6799 46.4692C25.6799 46.3313 25.7146 46.196 25.7806 46.0754C25.8456 45.9603 25.9411 45.8661 26.0566 45.803C26.1791 45.739 26.3152 45.7058 26.4532 45.7058C26.5913 45.7058 26.7273 45.739 26.8499 45.803C26.9649 45.8661 27.06 45.9606 27.1244 46.0754C27.1904 46.196 27.2251 46.3313 27.2251 46.4692C27.2251 46.607 27.1904 46.7424 27.1244 46.863C27.0591 46.9775 26.9642 47.0717 26.8499 47.1354C26.7275 47.2 26.5914 47.2338 26.4532 47.2338C26.315 47.2338 26.1789 47.2 26.0566 47.1354ZM26.7105 46.9298C26.7858 46.8858 26.8476 46.8218 26.8887 46.7443C26.9303 46.6584 26.952 46.5643 26.952 46.4686C26.952 46.3729 26.9303 46.2784 26.8887 46.1926C26.8475 46.1157 26.7858 46.052 26.7105 46.0089C26.6316 45.9661 26.5435 45.9437 26.4539 45.9437C26.3644 45.9437 26.2763 45.9661 26.1974 46.0089C26.1217 46.052 26.0595 46.1157 26.0177 46.1926C25.9743 46.2781 25.9516 46.3726 25.9516 46.4686C25.9516 46.5646 25.9743 46.659 26.0177 46.7443C26.0594 46.8218 26.1216 46.8858 26.1974 46.9298C26.2759 46.9735 26.3642 46.9966 26.4539 46.9966C26.5437 46.9966 26.6319 46.9735 26.7105 46.9298Z" fill="#3D352F"/>
<path d="M29.8781 46.979V47.5584H29.6252V47.2107H28.3835V47.5584H28.1277V46.979H28.2067C28.3016 46.979 28.3677 46.9067 28.4022 46.7763C28.4452 46.596 28.4698 46.4113 28.4755 46.2258L28.4985 45.7206H29.6482V46.979H29.8781ZM28.6709 46.7126C28.6596 46.8132 28.615 46.907 28.5445 46.979H29.3895V45.9652H28.7442L28.7313 46.255C28.7219 46.4086 28.7018 46.5615 28.6709 46.7126Z" fill="#3D352F"/>
<path d="M31.5034 45.7206V47.2166H31.2346V45.9581H30.5951L30.5779 46.291C30.573 46.4603 30.5552 46.6286 30.5247 46.795C30.5061 46.911 30.4624 47.0212 30.3968 47.1181C30.3682 47.1575 30.3305 47.1892 30.2869 47.2104C30.2432 47.2317 30.1951 47.2418 30.1467 47.2397C30.0907 47.2384 30.0351 47.2298 29.9814 47.2135L29.9987 46.9849C30.0208 46.9904 30.0435 46.9932 30.0662 46.9935C30.1006 46.9947 30.1346 46.9861 30.1644 46.9686C30.1942 46.9514 30.2184 46.9258 30.2344 46.895C30.2727 46.8221 30.2971 46.7424 30.3062 46.6603C30.3178 46.5707 30.3278 46.4418 30.3379 46.2738L30.3623 45.7206H31.5034Z" fill="#3D352F"/>
<path d="M33.2151 45.7206V47.2166H32.9736V46.743H32.5123L32.1861 47.2166H31.8987L32.2594 46.7052C32.1579 46.6787 32.0676 46.62 32.0021 46.5372C31.9403 46.4538 31.9083 46.3517 31.9116 46.2477C31.9072 46.1729 31.9208 46.0984 31.951 46.0301C31.9813 45.9618 32.0274 45.9018 32.0855 45.8553C32.2268 45.759 32.3954 45.7123 32.5655 45.7221L33.2151 45.7206ZM32.2809 46.475C32.366 46.531 32.4672 46.5566 32.5684 46.5473H32.9794V45.9581H32.5799C32.3212 45.9581 32.1919 46.0547 32.1919 46.2477C32.187 46.2901 32.1926 46.3329 32.2082 46.3726C32.2237 46.4123 32.2487 46.4473 32.2809 46.475Z" fill="#3D352F"/>
<path d="M35.5991 45.9581H35.0559V47.2166H34.7871V45.9581H34.2439V45.7206H35.5991V45.9581Z" fill="#3D352F"/>
<path d="M37.1499 46.5591H35.9456C35.9522 46.6209 35.9708 46.6806 36.0004 46.7351C36.03 46.7895 36.07 46.8375 36.118 46.8763C36.2216 46.9587 36.3511 47.0015 36.4831 46.9963C36.5637 47 36.6442 46.9858 36.7187 46.9544C36.7932 46.923 36.86 46.8757 36.9142 46.8154L37.058 46.9907C36.99 47.0701 36.9043 47.132 36.8079 47.1717C36.6867 47.2181 36.5573 47.2387 36.4278 47.2329C36.2982 47.2267 36.1713 47.1941 36.0548 47.1369C35.935 47.076 35.8353 46.9812 35.7674 46.8646C35.7032 46.7434 35.6697 46.608 35.6697 46.4707C35.6697 46.3332 35.7032 46.1981 35.7674 46.0769C35.8293 45.9627 35.9213 45.868 36.0332 45.8031C36.1507 45.7378 36.2829 45.7046 36.417 45.7061C36.5497 45.7043 36.6805 45.7378 36.7964 45.8031C36.907 45.8677 36.9972 45.9627 37.0565 46.0769C37.121 46.2 37.1531 46.3375 37.1499 46.4766C37.1517 46.504 37.1517 46.5317 37.1499 46.5591ZM36.0979 46.0535C36.0111 46.1344 35.9569 46.2449 35.9456 46.3637H36.8984C36.8873 46.2452 36.833 46.1354 36.7461 46.0551C36.6555 45.9778 36.5407 45.9354 36.422 45.9354C36.3033 45.9354 36.1885 45.9778 36.0979 46.0551V46.0535Z" fill="#3D352F"/>
<path d="M38.6963 45.864C38.8029 45.9249 38.8905 46.0148 38.9493 46.1231C39.0109 46.2388 39.0421 46.3683 39.0398 46.4997C39.0426 46.6345 39.0094 46.7677 38.9435 46.8849C38.8794 46.9963 38.7852 47.0874 38.6719 47.1471C38.548 47.2099 38.411 47.2415 38.2723 47.2397C38.1614 47.2459 38.0506 47.2255 37.9491 47.1797C37.8476 47.1342 37.7584 47.0649 37.6889 46.9775C37.5389 46.7637 37.4658 46.5046 37.4819 46.2434C37.4676 45.988 37.5335 45.7348 37.6702 45.5194C37.8117 45.3354 38.0171 45.2123 38.2451 45.1748L38.9234 45.0212L38.9622 45.2702L38.337 45.4049C38.1743 45.4329 38.0239 45.5102 37.9059 45.6265C37.8022 45.7517 37.7448 45.9092 37.7435 46.0726C37.8045 45.9775 37.8893 45.9006 37.9892 45.8495C38.0941 45.7954 38.2106 45.768 38.3284 45.7699C38.4571 45.7683 38.5839 45.8009 38.6963 45.864ZM38.5325 46.9486C38.6052 46.9062 38.6645 46.844 38.7035 46.7689C38.7459 46.6889 38.7672 46.5991 38.7653 46.5083C38.7653 46.4437 38.7526 46.3797 38.7281 46.32C38.7036 46.2603 38.6675 46.2059 38.6222 46.1603C38.5768 46.1145 38.5229 46.0782 38.4637 46.0535C38.4044 46.0286 38.3408 46.016 38.2767 46.016C38.2125 46.016 38.149 46.0286 38.0897 46.0535C38.0304 46.0782 37.9765 46.1145 37.9312 46.1603C37.8858 46.2059 37.8498 46.2603 37.8252 46.32C37.8007 46.3797 37.7881 46.4437 37.7881 46.5083C37.7866 46.5994 37.8084 46.6889 37.8513 46.7689C37.8919 46.8443 37.9527 46.9065 38.0266 46.9486C38.1032 46.9926 38.19 47.0151 38.2781 47.0139C38.3672 47.0154 38.455 46.9929 38.5325 46.9486Z" fill="#3D352F"/>
<path d="M40.7615 46.5591H39.5558C39.5623 46.6209 39.581 46.6806 39.6106 46.7351C39.6402 46.7895 39.6801 46.8375 39.7282 46.8763C39.8323 46.9591 39.9622 47.0015 40.0947 46.9963C40.1753 47 40.2558 46.9858 40.3303 46.9544C40.4048 46.923 40.4716 46.8757 40.5258 46.8154L40.6695 46.9907C40.6016 47.0701 40.5159 47.132 40.4195 47.1717C40.2982 47.2181 40.1689 47.2387 40.0394 47.2329C39.9098 47.2267 39.7829 47.1941 39.6664 47.1369C39.5466 47.076 39.4469 46.9812 39.379 46.8646C39.3148 46.7434 39.2812 46.608 39.2812 46.4707C39.2812 46.3332 39.3148 46.1981 39.379 46.0769C39.4409 45.9627 39.5329 45.868 39.6449 45.8031C39.7623 45.7378 39.8945 45.7046 40.0286 45.7061C40.1613 45.7043 40.2921 45.7378 40.408 45.8031C40.5186 45.8677 40.6088 45.9627 40.6681 46.0769C40.7326 46.2 40.7647 46.3375 40.7615 46.4766C40.7644 46.4987 40.7644 46.5261 40.7615 46.5591ZM39.7081 46.0535C39.6212 46.1344 39.567 46.2449 39.5558 46.3637H40.5086C40.4975 46.2452 40.4432 46.1354 40.3562 46.0551C40.2657 45.9778 40.1508 45.9354 40.0322 45.9354C39.9135 45.9354 39.7987 45.9778 39.7081 46.0551V46.0535Z" fill="#3D352F"/>
<path d="M14.3182 40.3841C14.3184 40.4325 14.316 40.4808 14.311 40.5289C14.3073 40.5607 14.2995 40.5918 14.288 40.6216C14.2793 40.6411 14.2671 40.6588 14.252 40.6737C14.2394 40.6852 14.223 40.6913 14.2061 40.6911H13.006V41.6875H14.1356C14.1517 41.6869 14.1675 41.692 14.1802 41.702C14.1965 41.7147 14.2089 41.7317 14.2161 41.7512C14.2289 41.7801 14.2366 41.8109 14.2391 41.8424C14.2489 41.9387 14.2489 42.0357 14.2391 42.1321C14.2366 42.1645 14.2288 42.1963 14.2161 42.2262C14.2097 42.2472 14.1972 42.2659 14.1802 42.2798C14.1676 42.2901 14.1519 42.2957 14.1356 42.2957H13.006V43.6788C13.0065 43.6979 13.0004 43.7169 12.9888 43.7323C12.9727 43.7514 12.9511 43.7649 12.927 43.7714C12.8896 43.7837 12.8511 43.7917 12.812 43.796C12.7514 43.8025 12.6905 43.8053 12.6295 43.8046C12.569 43.8053 12.5086 43.8025 12.4484 43.796C12.4094 43.7917 12.3708 43.7837 12.3335 43.7714C12.3099 43.7646 12.2889 43.7511 12.2731 43.7323C12.2604 43.7173 12.2538 43.6982 12.2544 43.6788V40.3146C12.2513 40.2816 12.2554 40.2483 12.2663 40.2171C12.2772 40.1858 12.2947 40.1573 12.3177 40.1336C12.3616 40.0957 12.4179 40.0756 12.4757 40.0771H14.2061C14.2227 40.0771 14.2389 40.0827 14.252 40.093C14.2677 40.1075 14.28 40.1253 14.288 40.1452C14.2997 40.1759 14.3074 40.208 14.311 40.2407C14.3159 40.2884 14.3183 40.3362 14.3182 40.3841Z" fill="#3D352F"/>
<path d="M18.1969 41.8902C18.2003 42.1696 18.1621 42.4478 18.0834 42.7157C18.0165 42.9434 17.9024 43.1542 17.7485 43.3342C17.5944 43.5041 17.4023 43.6348 17.1881 43.7148C16.9431 43.8084 16.6825 43.8536 16.4206 43.848C16.1661 43.853 15.9125 43.8148 15.6704 43.7351C15.4675 43.6659 15.2844 43.5474 15.1373 43.3905C14.9871 43.2204 14.8775 43.0176 14.8168 42.7982C14.7412 42.522 14.7054 42.2362 14.7104 41.9496C14.7064 41.6755 14.7447 41.4024 14.824 41.1401C14.8916 40.9143 15.0068 40.7058 15.1617 40.529C15.3148 40.3584 15.5052 40.226 15.7179 40.1423C15.9637 40.048 16.2252 40.0023 16.4882 40.0076C16.7389 40.0028 16.9886 40.0405 17.2269 40.1191C17.4305 40.1871 17.6143 40.305 17.7615 40.4624C17.9124 40.6306 18.0234 40.8311 18.0863 41.0489C18.1651 41.3221 18.2024 41.6057 18.1969 41.8902ZM17.4108 41.9293C17.4125 41.7512 17.3975 41.5732 17.3662 41.3979C17.3416 41.2524 17.2888 41.1131 17.211 40.988C17.1401 40.876 17.0409 40.7851 16.9236 40.7245C16.7811 40.6577 16.6251 40.6254 16.468 40.6303C16.3078 40.6245 16.1487 40.6609 16.0067 40.736C15.8858 40.803 15.7831 40.899 15.7078 41.0156C15.6285 41.1399 15.5738 41.2786 15.5468 41.4239C15.5145 41.587 15.4986 41.7529 15.4994 41.9192C15.498 42.1022 15.5134 42.285 15.5454 42.4652C15.5703 42.6117 15.6225 42.7523 15.6992 42.8794C15.7688 42.9921 15.8683 43.0828 15.9866 43.1416C16.1304 43.2068 16.2873 43.2382 16.445 43.2327C16.6051 43.2382 16.764 43.2025 16.9064 43.1284C17.0276 43.0613 17.13 42.9641 17.2039 42.8459C17.283 42.7194 17.3376 42.5789 17.3648 42.4319C17.3959 42.2662 17.4113 42.0979 17.4108 41.9293Z" fill="#3D352F"/>
<path d="M21.5584 43.6902C21.5588 43.7089 21.5549 43.7271 21.5469 43.7437C21.5337 43.7622 21.5143 43.7751 21.4923 43.78C21.4516 43.792 21.4096 43.7988 21.3672 43.8003C21.3126 43.8003 21.2379 43.8003 21.143 43.8003C21.0482 43.8003 20.9993 43.8003 20.9519 43.8003C20.9138 43.7979 20.8761 43.7905 20.8398 43.7785C20.8167 43.7711 20.7962 43.7569 20.7809 43.7382C20.769 43.72 20.7594 43.7006 20.7522 43.68L20.423 42.8459C20.3828 42.7533 20.344 42.6693 20.3052 42.5969C20.2721 42.5302 20.2295 42.4688 20.1787 42.4145C20.1335 42.3665 20.0786 42.329 20.0178 42.3044C19.9509 42.2784 19.8796 42.2656 19.808 42.2667H19.5737V43.6816C19.5739 43.7 19.5678 43.7179 19.5564 43.7323C19.5396 43.7502 19.5183 43.7634 19.4946 43.7699C19.4577 43.7816 19.4197 43.7893 19.3811 43.7933C19.3205 43.7997 19.2596 43.8025 19.1986 43.8019C19.1381 43.8025 19.0776 43.7994 19.0175 43.7933C18.9785 43.7893 18.94 43.7816 18.9026 43.7699C18.8794 43.764 18.8587 43.7508 18.8436 43.7323C18.8323 43.7179 18.8261 43.7 18.8264 43.6816V40.3146C18.823 40.2816 18.8269 40.2482 18.8378 40.2169C18.8488 40.1856 18.8665 40.1572 18.8896 40.1336C18.9336 40.0957 18.9899 40.0756 19.0477 40.0771H20.002C20.0982 40.0771 20.1773 40.0771 20.2405 40.0771L20.4115 40.0916C20.5489 40.1098 20.6833 40.1463 20.8111 40.2002C20.9238 40.2474 21.0263 40.3163 21.1129 40.4029C21.1951 40.4854 21.2597 40.584 21.3026 40.6926C21.3478 40.8178 21.3697 40.9504 21.3672 41.0836C21.3683 41.1987 21.3528 41.3133 21.3212 41.4239C21.2905 41.5233 21.2418 41.6161 21.1775 41.6976C21.1154 41.7801 21.0396 41.8512 20.9533 41.9076C20.8586 41.9693 20.7562 42.018 20.6487 42.0524C20.7036 42.0792 20.7557 42.1117 20.8039 42.1494C20.8579 42.1912 20.9062 42.2398 20.9476 42.2942C20.993 42.3529 21.0334 42.4154 21.0683 42.4811C21.11 42.5574 21.1469 42.6362 21.179 42.7171L21.4851 43.4526C21.5138 43.5253 21.5325 43.5788 21.5426 43.612C21.5514 43.6373 21.5567 43.6637 21.5584 43.6902ZM20.5926 41.1734C20.5964 41.0642 20.5679 40.9563 20.5107 40.8635C20.4456 40.7724 20.3493 40.709 20.2405 40.6853C20.198 40.6746 20.1548 40.6669 20.1112 40.6621C20.0443 40.6555 19.9771 40.6526 19.91 40.6535H19.5737V41.7063H19.956C20.0504 41.7081 20.1444 41.6949 20.2348 41.6672C20.3081 41.6453 20.3761 41.6083 20.4345 41.5586C20.4867 41.5127 20.5275 41.4552 20.5538 41.3906C20.5804 41.3213 20.5936 41.2476 20.5926 41.1734Z" fill="#3D352F"/>
<path d="M24.2903 43.4932C24.294 43.5415 24.294 43.5898 24.2903 43.6381C24.2876 43.6689 24.2803 43.699 24.2688 43.728C24.262 43.7477 24.2501 43.7652 24.2343 43.7784C24.2205 43.7886 24.2039 43.7944 24.1869 43.7944H22.3301C22.2722 43.7966 22.2157 43.7763 22.172 43.7381C22.1485 43.7144 22.1305 43.6858 22.1193 43.6541C22.1081 43.6224 22.104 43.5889 22.1073 43.5557V40.3146C22.1041 40.2814 22.1083 40.248 22.1194 40.2167C22.1306 40.1854 22.1486 40.157 22.172 40.1335C22.2157 40.0952 22.2722 40.075 22.3301 40.077H24.1682C24.1847 40.0767 24.2008 40.0818 24.2142 40.0915C24.2298 40.1049 24.2413 40.1225 24.2472 40.1422C24.2587 40.1714 24.266 40.2022 24.2688 40.2334C24.2723 40.2817 24.2723 40.3301 24.2688 40.3783C24.2721 40.4236 24.2721 40.4691 24.2688 40.5144C24.2662 40.5453 24.259 40.5755 24.2472 40.6042C24.2409 40.6238 24.2295 40.6413 24.2142 40.6549C24.2009 40.665 24.1848 40.6706 24.1682 40.6708H22.8532V41.5774H23.9655C23.9826 41.5775 23.9992 41.5831 24.013 41.5933C24.0289 41.6058 24.0413 41.6222 24.0489 41.6411C24.0591 41.6702 24.0663 41.7002 24.0705 41.7309C24.08 41.8218 24.08 41.9136 24.0705 42.0046C24.0664 42.0342 24.0592 42.0634 24.0489 42.0914C24.0421 42.1107 24.0295 42.1274 24.013 42.1392C23.9991 42.149 23.9825 42.154 23.9655 42.1537H22.8532V43.2009H24.1797C24.1968 43.2009 24.2133 43.2064 24.2271 43.2166C24.2429 43.2295 24.2549 43.2464 24.2616 43.2658C24.2731 43.295 24.2804 43.3258 24.2832 43.3572C24.2887 43.4024 24.2912 43.4477 24.2903 43.4932Z" fill="#3D352F"/>
<path d="M27.077 42.675C27.0806 42.8526 27.0437 43.0283 26.9692 43.1892C26.9021 43.3319 26.8038 43.4578 26.6818 43.5569C26.5536 43.6584 26.4072 43.7341 26.2506 43.7799C26.0783 43.8301 25.8997 43.855 25.7203 43.8538C25.6018 43.8544 25.4835 43.8443 25.3668 43.8233C25.2692 43.8052 25.1732 43.7793 25.0794 43.7467C25.0068 43.7221 24.9366 43.691 24.8695 43.6541C24.8261 43.6298 24.7855 43.6009 24.7488 43.567C24.7216 43.5372 24.7032 43.4999 24.6956 43.4599C24.6843 43.3935 24.6795 43.3261 24.6813 43.2587C24.6813 43.1993 24.6813 43.1486 24.6813 43.1138C24.6839 43.0806 24.6902 43.0473 24.7 43.0153C24.7062 42.9944 24.7182 42.9759 24.7345 42.9618C24.7492 42.9513 24.7668 42.9458 24.7847 42.9458C24.8256 42.9516 24.8642 42.9683 24.8969 42.9935C24.9573 43.0319 25.0197 43.0673 25.0837 43.0993C25.1713 43.1415 25.2621 43.1763 25.3553 43.2036C25.474 43.2372 25.597 43.2535 25.7203 43.2513C25.8034 43.2523 25.8862 43.2412 25.9661 43.2181C26.0324 43.199 26.0944 43.167 26.1486 43.1239C26.1981 43.0855 26.238 43.0359 26.265 42.979C26.2915 42.9166 26.3047 42.8489 26.3038 42.7809C26.3053 42.6992 26.2784 42.6198 26.2276 42.5563C26.1776 42.4931 26.1173 42.4387 26.0494 42.3955C25.9696 42.3461 25.8865 42.302 25.8008 42.2638C25.7074 42.2232 25.6111 42.1798 25.5134 42.1334C25.4142 42.0879 25.3182 42.0356 25.226 41.977C25.1332 41.9198 25.0491 41.8495 24.9759 41.7685C24.9012 41.6827 24.8415 41.5847 24.7991 41.4788C24.7503 41.3515 24.7268 41.2157 24.7302 41.0791C24.7271 40.9173 24.7605 40.7569 24.8279 40.6099C24.8901 40.4795 24.981 40.3651 25.0938 40.2754C25.2098 40.1828 25.3433 40.1149 25.4861 40.0756C25.6423 40.0314 25.8039 40.0094 25.9661 40.0104C26.0536 40.0103 26.141 40.0165 26.2276 40.0292C26.3102 40.0422 26.3918 40.0606 26.472 40.0843C26.5415 40.1048 26.6092 40.131 26.6746 40.1625C26.7168 40.1799 26.7561 40.2038 26.791 40.2334C26.8064 40.2477 26.8195 40.2643 26.8298 40.2827C26.8368 40.2996 26.8426 40.317 26.847 40.3348C26.8518 40.3626 26.8551 40.3906 26.8571 40.4188C26.8571 40.4521 26.8571 40.4941 26.8571 40.5433C26.8571 40.5926 26.8571 40.6462 26.8571 40.6882C26.854 40.7198 26.8492 40.7512 26.8427 40.7823C26.8377 40.8027 26.8279 40.8216 26.814 40.8373C26.8 40.8494 26.782 40.8556 26.7637 40.8547C26.728 40.8491 26.694 40.8352 26.6645 40.8141C26.6186 40.7881 26.5625 40.7577 26.4964 40.7272C26.422 40.6924 26.3452 40.6634 26.2664 40.6403C26.1729 40.614 26.0761 40.6014 25.979 40.6027C25.9066 40.6016 25.8344 40.6113 25.7649 40.6317C25.709 40.649 25.6571 40.6775 25.6126 40.7157C25.5727 40.7503 25.5417 40.794 25.522 40.8431C25.5017 40.8932 25.4914 40.9468 25.4918 41.001C25.4896 41.0774 25.5129 41.1523 25.5579 41.2138C25.607 41.2785 25.668 41.3331 25.7376 41.3746C25.8187 41.4254 25.9037 41.4695 25.992 41.5064L26.2794 41.6367C26.378 41.6835 26.4739 41.7357 26.5668 41.7931C26.6608 41.8509 26.7464 41.9216 26.8212 42.0031C26.8972 42.0882 26.9575 42.1863 26.9994 42.2927C27.0501 42.4137 27.0764 42.5437 27.077 42.675Z" fill="#3D352F"/>
<path d="M30.0433 40.384C30.0459 40.4323 30.0459 40.4806 30.0433 40.5289C30.04 40.561 30.0327 40.5926 30.0217 40.623C30.0145 40.6436 30.0021 40.6621 29.9858 40.6766C29.9725 40.6877 29.9557 40.6939 29.9384 40.6939H29.0172V43.6858C29.0169 43.7043 29.0103 43.7224 28.9985 43.7366C28.9817 43.7547 28.9603 43.7676 28.9367 43.7741C28.8993 43.7861 28.8608 43.7938 28.8217 43.7975C28.7018 43.8089 28.581 43.8089 28.461 43.7975C28.4215 43.7938 28.3825 43.7858 28.3446 43.7741C28.3214 43.7676 28.3004 43.7547 28.2842 43.7366C28.2719 43.7227 28.2652 43.7046 28.2655 43.6858V40.6939H27.3429C27.3255 40.6944 27.3085 40.6882 27.2955 40.6766C27.2792 40.6624 27.2672 40.6438 27.261 40.623C27.2474 40.5931 27.2381 40.5614 27.2337 40.5289C27.231 40.4806 27.231 40.4323 27.2337 40.384C27.2311 40.3358 27.2311 40.2875 27.2337 40.2392C27.2362 40.2065 27.2434 40.1743 27.2552 40.1436C27.2611 40.1231 27.2731 40.1048 27.2897 40.0915C27.3033 40.0809 27.32 40.0752 27.3372 40.0756H29.9326C29.9497 40.0758 29.9663 40.0814 29.9801 40.0915C29.9967 40.1051 30.0091 40.1232 30.016 40.1436C30.0271 40.1745 30.0344 40.2066 30.0375 40.2392C30.042 40.2874 30.0439 40.3357 30.0433 40.384Z" fill="#3D352F"/>
<path d="M34.6708 43.6858C34.6711 43.7046 34.6645 43.7227 34.6521 43.7366C34.6356 43.7551 34.6141 43.768 34.5903 43.7741C34.5534 43.7861 34.5153 43.7938 34.4768 43.7975C34.4176 43.8037 34.3581 43.8067 34.2986 43.8061C34.2371 43.8067 34.1757 43.804 34.1146 43.7975C34.076 43.7938 34.0379 43.7861 34.0011 43.7741C33.9778 43.7677 33.9569 43.7547 33.9407 43.7366C33.9284 43.7227 33.9217 43.7046 33.922 43.6858V42.1856H32.551V43.6858C32.5512 43.7043 32.5452 43.7221 32.5338 43.7366C32.5178 43.7551 32.4968 43.768 32.4734 43.7741C32.4364 43.7858 32.3984 43.7935 32.3599 43.7975C32.2992 43.804 32.2383 43.8067 32.1773 43.8061C32.1169 43.8067 32.0564 43.8037 31.9963 43.7975C31.9572 43.7935 31.9187 43.7858 31.8813 43.7741C31.8579 43.768 31.8369 43.7551 31.8209 43.7366C31.8086 43.7227 31.8019 43.7046 31.8023 43.6858V40.1799C31.8019 40.1612 31.8086 40.1431 31.8209 40.1292C31.8369 40.1108 31.8579 40.0977 31.8813 40.0915C31.9187 40.0799 31.9572 40.0721 31.9963 40.0684C32.0564 40.062 32.1169 40.0591 32.1773 40.0597C32.2383 40.059 32.2992 40.0619 32.3599 40.0684C32.3984 40.0721 32.4364 40.0799 32.4734 40.0915C32.4968 40.0977 32.5178 40.1108 32.5338 40.1292C32.5452 40.1436 32.5512 40.1615 32.551 40.1799V41.5426H33.9278V40.1799C33.9274 40.1612 33.9341 40.1431 33.9465 40.1292C33.9627 40.1111 33.9836 40.0981 34.0068 40.0915C34.0437 40.0796 34.0818 40.0718 34.1204 40.0684C34.1815 40.0619 34.2429 40.059 34.3043 40.0597C34.3638 40.0591 34.4233 40.0619 34.4825 40.0684C34.5211 40.0719 34.5591 40.0797 34.596 40.0915C34.6198 40.0978 34.6413 40.1108 34.6578 40.1292C34.6702 40.1431 34.6769 40.1612 34.6765 40.1799L34.6708 43.6858Z" fill="#3D352F"/>
<path d="M38.7868 41.8901C38.7902 42.1695 38.7519 42.4477 38.6733 42.7156C38.6051 42.9437 38.4895 43.1544 38.3341 43.3341C38.1814 43.5052 37.9909 43.6375 37.7779 43.7206C37.532 43.8166 37.2699 43.864 37.0062 43.8597C36.7516 43.8646 36.498 43.8264 36.256 43.7467C36.0529 43.6778 35.8697 43.5594 35.7228 43.4021C35.5721 43.2323 35.4624 43.0295 35.4023 42.8098C35.3261 42.5336 35.2903 42.2477 35.296 41.9611C35.292 41.687 35.3303 41.4139 35.4095 41.1516C35.4774 40.9251 35.5931 40.7162 35.7487 40.539C35.9018 40.3684 36.0923 40.2361 36.3049 40.1523C36.5502 40.0582 36.8112 40.0125 37.0737 40.0177C37.3244 40.0126 37.5742 40.0503 37.8124 40.1292C38.0166 40.1969 38.2009 40.3149 38.3485 40.4724C38.4989 40.6407 38.6095 40.8413 38.6718 41.0589C38.7511 41.3286 38.7899 41.6088 38.7868 41.8901ZM38.0007 41.9293C38.0026 41.751 37.9872 41.573 37.9547 41.3978C37.93 41.2523 37.8773 41.113 37.7995 40.9879C37.7295 40.8752 37.6301 40.784 37.5121 40.7244C37.3702 40.6574 37.2146 40.6251 37.0579 40.6302C36.8976 40.6244 36.7386 40.6609 36.5966 40.736C36.4757 40.8029 36.373 40.899 36.2977 41.0155C36.2183 41.1398 36.1637 41.2785 36.1367 41.4238C36.1044 41.5869 36.0884 41.7528 36.0893 41.9191C36.0879 42.1021 36.1032 42.2849 36.1353 42.4651C36.1602 42.6117 36.2124 42.7522 36.2891 42.8794C36.3583 42.9923 36.4579 43.0834 36.5765 43.1415C36.7203 43.207 36.8772 43.2381 37.0349 43.2326C37.195 43.2381 37.3539 43.2024 37.4962 43.1283C37.6176 43.0612 37.7203 42.9646 37.7952 42.8473C37.8738 42.7207 37.9279 42.5802 37.9547 42.4332C37.9866 42.2672 38.002 42.0984 38.0007 41.9293Z" fill="#3D352F"/>
<path d="M43.7075 43.6859C43.7075 43.704 43.7019 43.7219 43.6915 43.7367C43.6774 43.7551 43.6577 43.768 43.6356 43.7742C43.5997 43.7859 43.5626 43.7936 43.5248 43.7976C43.4671 43.804 43.4091 43.8068 43.351 43.8062C43.2942 43.8068 43.2377 43.8037 43.1816 43.7976C43.1444 43.7939 43.1076 43.7859 43.0723 43.7742C43.0505 43.7674 43.0308 43.7542 43.0161 43.7367C43.0047 43.7222 42.9986 43.7043 42.9989 43.6859V40.6651L41.9311 43.6831C41.9245 43.7065 41.9115 43.7274 41.8938 43.7437C41.8738 43.7619 41.8503 43.7751 41.8248 43.7831C41.7882 43.7933 41.7506 43.7994 41.7127 43.8019C41.6667 43.8019 41.6121 43.8019 41.5474 43.8019C41.4827 43.8019 41.4281 43.8019 41.3821 43.8019C41.344 43.7985 41.3064 43.7908 41.27 43.7785C41.2441 43.7708 41.2201 43.7573 41.1996 43.7394C41.1831 43.7256 41.171 43.7068 41.1651 43.6859L40.1362 40.668V43.6859C40.1362 43.704 40.1306 43.7219 40.1203 43.7367C40.105 43.7548 40.0844 43.768 40.0614 43.7742C40.0259 43.7856 39.9893 43.7936 39.9522 43.7976C39.838 43.809 39.7229 43.809 39.6087 43.7976C39.5716 43.7939 39.535 43.7859 39.4995 43.7742C39.477 43.7677 39.457 43.7545 39.442 43.7367C39.4317 43.7219 39.4262 43.704 39.4262 43.6859V40.3841C39.4235 40.3434 39.429 40.3025 39.4423 40.2639C39.4556 40.2254 39.4766 40.1899 39.5038 40.1597C39.5592 40.1081 39.6325 40.0805 39.7079 40.0829H40.1979C40.2737 40.0817 40.3494 40.089 40.4236 40.1046C40.4815 40.1169 40.5363 40.1411 40.5845 40.1756C40.6322 40.2108 40.6715 40.2563 40.6995 40.3088C40.7333 40.3727 40.7599 40.4402 40.7785 40.5101L41.5762 42.7215H41.5876L42.4126 40.5159C42.4332 40.446 42.4602 40.3781 42.493 40.3132C42.5189 40.2622 42.554 40.2165 42.5965 40.1785C42.6378 40.1425 42.6871 40.1171 42.7404 40.1046C42.8002 40.0893 42.8623 40.082 42.9243 40.0829H43.4287C43.4735 40.0821 43.5184 40.089 43.5607 40.1032C43.5957 40.1151 43.6273 40.1355 43.6528 40.1626C43.6774 40.1894 43.6955 40.2216 43.7059 40.2567C43.7191 40.2978 43.7256 40.3409 43.7247 40.3841L43.7075 43.6859Z" fill="#3D352F"/>
<path d="M46.6924 43.4933C46.6951 43.5416 46.6951 43.5899 46.6924 43.6382C46.6884 43.6687 46.681 43.6988 46.6709 43.7281C46.6638 43.7477 46.6512 43.7653 46.6349 43.7785C46.6211 43.7887 46.6045 43.7945 46.5877 43.7945H44.732C44.6743 43.7964 44.6178 43.7761 44.5742 43.7382C44.5506 43.7145 44.5325 43.6859 44.5214 43.6542C44.5101 43.6225 44.5061 43.589 44.5095 43.5557V40.3146C44.5061 40.2815 44.5104 40.2481 44.5214 40.2168C44.5328 40.1855 44.5506 40.1571 44.5742 40.1336C44.6178 40.0955 44.6743 40.0754 44.732 40.0771H46.5702C46.5867 40.0766 46.603 40.0817 46.6162 40.0916C46.6319 40.1052 46.6438 40.1226 46.6509 40.1423C46.661 40.1719 46.6681 40.2025 46.6724 40.2335C46.6776 40.2816 46.6801 40.33 46.6795 40.3784C46.6798 40.4238 46.6773 40.4693 46.6724 40.5145C46.6684 40.5451 46.661 40.5752 46.6509 40.6043C46.6435 40.6237 46.6316 40.6411 46.6162 40.6549C46.603 40.6653 46.587 40.6709 46.5702 40.6709H45.2552V41.5774H46.3691C46.3856 41.5774 46.4019 41.583 46.4151 41.5934C46.4314 41.6054 46.444 41.622 46.451 41.6412C46.4627 41.6698 46.4698 41.7001 46.4725 41.7309C46.482 41.8219 46.482 41.9137 46.4725 42.0046C46.4698 42.0345 46.4627 42.0639 46.451 42.0915C46.4446 42.1111 46.432 42.1279 46.4151 42.1393C46.4019 42.1492 46.3856 42.1543 46.3691 42.1538H45.2552V43.201H46.5818C46.5987 43.201 46.6153 43.2065 46.6291 43.2167C46.6454 43.2296 46.658 43.2465 46.665 43.2659C46.6755 43.2957 46.6825 43.3262 46.6868 43.3573C46.6911 43.4025 46.693 43.4481 46.6924 43.4933Z" fill="#3D352F"/>
<mask id="mask0_963_720" style="mask-type:luminance" maskUnits="userSpaceOnUse" x="17" y="12" width="25" height="26">
<path d="M41.8499 12.3H17.7327V37.8H41.8499V12.3Z" fill="white"/>
</mask>
<g mask="url(#mask0_963_720)">
<path fill-rule="evenodd" clip-rule="evenodd" d="M26.8561 33.9019C25.5022 34.3216 23.0427 35.0899 22.619 35.8292C22.8544 35.0947 24.7441 33.8922 26.8399 33.4725C25.3902 33.4273 20.6157 34.3749 18.1758 34.6993C22.934 33.5904 22.934 33.4645 25.6288 33.1933C26.3715 33.1167 27.0921 32.8974 27.7506 32.5477C28.8302 31.9908 29.0948 31.6663 29.236 31.0433C29.5364 29.7116 29.3773 25.8781 29.0185 25.4406C28.6207 24.9564 27.9308 24.7821 27.0704 24.8418C26.2587 24.8967 25.7571 25.2276 25.1856 25.5472C24.8985 25.7251 24.5819 25.8508 24.2506 25.9184C23.9583 25.9717 23.3755 26.0508 23.1401 25.891C24.3366 26.1089 25.6678 24.9015 25.8528 24.8273C25.6743 24.8273 25.4454 24.8483 25.2489 24.8499C25.0525 24.8515 24.835 24.8499 24.6272 24.8499C23.9275 24.8402 22.7586 24.5529 21.9307 25.8555C21.9762 25.3599 22.4421 24.937 22.8317 24.7482C22.8317 24.7482 23.2879 24.5626 23.3057 24.5481C23.1677 24.5933 23.0207 24.6049 22.8771 24.5819C21.8658 24.3511 20.6872 23.4181 20.6223 23.3729C23.0233 24.8499 24.473 24.406 26.1418 24.2365C26.2084 24.2365 26.5184 24.1736 26.5184 24.1736C26.2457 24.1526 25.9633 24.1413 25.6938 24.1138C25.4243 24.0864 25.3057 23.9072 25.1661 23.791C25.0102 23.6515 24.8693 23.4962 24.7457 23.3277C24.6337 23.1664 24.5119 22.921 24.421 22.8032C24.1399 22.4925 23.7943 22.2463 23.408 22.0817C23.1898 21.9962 22.9619 21.9377 22.7294 21.9073C22.5901 21.8944 22.4499 21.8944 22.3106 21.9073C22.1937 21.9251 22.0719 21.9687 21.968 21.9832C22.2732 21.8024 22.9242 21.7314 23.3366 21.8412C24.3999 22.1252 23.9859 22.143 24.322 22.44C24.2782 22.2963 24.1954 22.1365 24.1385 21.9784C23.8804 21.2649 23.7164 20.3868 23.2051 19.8154C22.8918 19.4652 22.7749 19.4926 22.52 19.2666C22.8051 19.3789 23.0666 19.5431 23.2911 19.7509C23.3978 19.8513 23.4971 19.9591 23.5882 20.0737C23.6775 20.1947 23.7505 20.3077 23.8382 20.4433C24.1434 20.9372 24.3382 21.6152 24.6109 22.1462C24.8999 22.7063 25.1726 23.1567 25.7619 23.4746C26.3837 23.8104 26.9697 23.9121 27.7782 23.9589C27.7782 23.9589 27.6418 23.904 27.6159 23.8959C27.473 23.8507 27.3155 23.8088 27.249 23.6861C27.1532 23.5134 27.072 23.3633 26.9876 23.1777C26.585 22.2431 26.3902 21.3617 25.5184 20.7904L25.0314 20.516C25.3371 20.5976 25.6295 20.7221 25.8999 20.8856C26.7002 21.3827 27.0249 22.1446 27.5233 22.9339C27.8821 23.4973 28.2279 23.8281 28.8756 24.0412C28.9909 24.0799 29.0022 24.0799 29.038 24.1897C29.1695 24.5125 29.525 25.5633 29.6305 25.7086C29.598 25.4439 29.3367 24.7224 29.2441 24.4173C28.9974 23.5812 28.9503 22.5675 28.486 21.825C27.8366 20.8033 25.6791 19.8009 24.7765 18.8421C24.4991 18.5517 24.2715 18.218 24.1028 17.8543C24.2988 18.1194 24.5137 18.3702 24.7457 18.6048C25.1985 18.9946 25.6986 19.3265 26.2343 19.5927C26.4632 19.7121 26.874 19.8993 26.874 19.8993C27.0769 19.9897 27.0931 20.1237 27.223 20.2383C27.1789 20.1488 27.1267 20.0635 27.0672 19.9833C27.0672 19.9736 26.7522 19.3828 26.6158 19.0681C26.4373 18.6581 26.2473 18.1545 26.2749 17.6541C26.3108 17.7524 26.339 17.8533 26.3593 17.956C26.5477 18.579 26.9551 19.1762 27.3431 19.6605C27.681 20.0889 28.0684 20.4763 28.4974 20.8146C28.6808 20.955 28.624 21.1713 28.7409 21.3392C28.7409 21.0793 28.6711 20.7097 28.6386 20.4433C28.4113 18.6274 27.9746 17.6234 26.5282 16.5307C26.3295 16.4029 26.1377 16.265 25.9535 16.1175C26.3058 16.2337 27.2019 16.8664 27.4779 17.1198C27.5396 17.1779 28.5444 18.4353 28.6143 18.5064C28.5834 18.3449 28.4811 18.2142 28.5055 18.0415C28.6007 17.4623 28.8068 16.9067 29.1126 16.4048C29.2328 16.1982 29.6971 15.5622 29.8513 15.4783C29.7425 15.722 29.4503 15.9141 29.1435 16.7793C28.9389 17.3477 28.8592 17.9531 28.9097 18.5548C28.9628 19.4324 29.0992 20.3031 29.3172 21.1551C29.3433 21.2208 29.3555 21.2911 29.353 21.3617C29.3505 21.4322 29.3333 21.5015 29.3026 21.5651C29.2782 21.6394 29.262 21.6846 29.2393 21.7637C29.2393 21.7637 29.1987 21.9025 29.2393 21.9574C29.2633 21.8812 29.2926 21.8068 29.3269 21.7346C29.3993 21.5343 29.4929 21.3422 29.6062 21.1616C29.8967 20.6241 30.2036 20.114 30.2263 19.4716C30.2425 18.9874 30.111 18.9067 30.012 18.5403C30.7231 19.5378 30.3724 20.4433 30.0023 21.4925C29.8286 21.9767 29.7279 22.2398 29.7831 22.6789C30.3984 22.7225 30.4763 22.5724 30.8967 22.4593C30.6532 22.6357 30.3775 22.7634 30.0851 22.8354C30.0495 22.8438 30.0161 22.8593 29.9868 22.881C29.9575 22.9027 29.933 22.9301 29.9148 22.9615C29.8965 22.9929 29.8849 23.0278 29.8807 23.0638C29.8765 23.0999 29.8798 23.1364 29.8903 23.1712C29.9325 23.3068 30.0055 23.5376 30.0851 23.7684C30.152 23.9689 30.2301 24.1656 30.3188 24.3576C30.3432 24.293 30.3643 24.2365 30.3822 24.1961C30.426 24.0864 30.439 24.0864 30.5445 24.0477C30.8374 23.958 31.1091 23.8103 31.3432 23.6135C31.0185 22.6611 30.8075 21.8024 31.4715 20.8694C31.3659 21.2601 31.2263 21.3537 31.2442 21.8605C31.2819 22.3509 31.4318 22.8263 31.6825 23.2503C31.7555 23.155 31.827 23.0533 31.8968 22.942C32.0786 22.6563 32.2377 22.3738 32.4049 22.1059C32.1241 21.2665 31.9796 20.4917 32.5672 19.6653C32.4682 20.0317 32.3367 20.1205 32.353 20.5967C32.3768 20.9848 32.4836 21.3634 32.6663 21.7072C32.8944 21.3852 33.184 21.111 33.5186 20.9001C33.789 20.7366 34.0814 20.6121 34.3871 20.5305L33.9001 20.8049C33.0283 21.3747 32.8351 22.2576 32.439 23.1793C32.361 23.3533 32.2738 23.523 32.1776 23.6877C32.1111 23.8104 31.9536 23.8491 31.8107 23.8975C31.7848 23.8975 31.6484 23.9605 31.6484 23.9605C32.4601 23.9201 33.0429 23.8185 33.6663 23.4763C34.254 23.1534 34.5267 22.7079 34.8156 22.1478C35.0884 21.6168 35.2832 20.9389 35.5884 20.4449C35.7574 20.2034 35.94 19.9717 36.1355 19.7509C36.3599 19.5431 36.6215 19.3789 36.9066 19.2666C36.6517 19.4877 36.5365 19.4652 36.2215 19.8154C35.7101 20.3868 35.5462 21.2681 35.2881 21.9784C35.2313 22.1398 35.1484 22.3012 35.1046 22.44C35.4423 22.143 35.0267 22.1172 36.09 21.8412C36.504 21.7314 37.1534 21.8024 37.4585 21.9832C37.3546 21.9687 36.8092 21.9009 36.6972 21.9089C36.4636 21.9385 36.2346 21.9965 36.0153 22.0817C35.6304 22.2483 35.2864 22.4962 35.0072 22.808C34.9114 22.9258 34.7881 23.1744 34.6825 23.3326C34.5596 23.4997 34.4192 23.6533 34.2637 23.791C34.1241 23.9137 33.9877 24.0945 33.7361 24.1138C33.4845 24.1332 33.1841 24.1526 32.913 24.1736C32.913 24.1736 33.2215 24.2301 33.288 24.2365C34.9569 24.3979 36.7475 24.5319 38.2475 23.6942C38.3514 23.6361 38.7573 23.3859 38.8076 23.3713C38.7362 23.4149 38.6209 23.5198 38.5414 23.5796C37.9469 24.0264 37.275 24.3613 36.5592 24.5674C36.3692 24.6174 36.3108 24.5674 36.1306 24.5335C36.1644 24.5563 36.201 24.5747 36.2394 24.5884L36.6046 24.7337C36.991 24.9193 37.4504 25.3373 37.504 25.8264C37.504 25.8264 37.504 25.8264 37.504 25.8361C37.3076 25.5375 37.3644 25.452 36.9569 25.1743C36.3758 24.7805 35.5105 24.8257 34.8108 24.8353C34.603 24.8353 34.3968 24.8353 34.189 24.8353C33.9812 24.8353 33.7637 24.8063 33.5851 24.8128C33.7702 24.887 35.2085 25.9862 36.2978 25.8765C36.0624 26.0379 35.4861 25.9572 35.1874 25.9039C34.856 25.8363 34.5394 25.7105 34.2523 25.5327C33.6809 25.2098 33.1793 24.887 32.3676 24.8273C32.1383 24.8093 31.9079 24.8125 31.6792 24.837C30.6029 25.3583 30.7539 29.0337 31.2848 31.0288C31.6289 32.0553 32.6338 32.5331 33.4991 32.659C35.2247 32.9108 39.7216 33.5823 41.4115 33.9148C39.8369 33.7308 35.3968 33.3111 33.814 33.3983C35.2913 33.9164 36.7085 34.9914 38.5333 35.3933C36.5024 35.1496 35.1744 34.2635 33.6728 33.7405C33.5999 34.4231 33.7724 35.1093 34.1598 35.6774C33.0494 34.3749 33.7312 33.3563 31.0477 32.4492C32.1841 33.5323 32.3091 34.8462 33.3205 36.0487C32.0802 35.1625 31.926 33.7227 30.7231 32.8204C30.749 34.3297 31.9325 35.1286 32.2198 35.7065C32.2741 35.8192 32.3555 35.9167 32.4569 35.9906C32.8286 36.2569 33.202 36.9074 33.4487 37.3013C33.103 36.9461 32.7166 36.3425 32.2685 36.1278C32.2198 36.633 31.9861 37.4191 31.6419 37.8C32.1663 36.5265 32.3643 35.6532 30.577 34.5169C30.7539 35.5241 30.2182 36.2827 31.2036 37.1398C29.7815 36.3925 30.4698 34.9301 30.2295 34.1828C29.986 35.3837 29.4601 36.4425 29.8188 37.2851C29.3107 36.7734 29.7182 35.0802 29.736 34.3619C29.4665 34.4136 28.4129 35.4708 28.1629 36.1681C28.4292 34.7154 29.7571 34.6493 29.5997 32.7526C28.7685 32.8479 28.8042 35.0463 27.2019 35.7129C28.4097 34.9059 28.0396 33.8147 28.6727 32.8543C27.1629 33.4919 27.7295 34.5508 24.9908 36.5023C24.9665 36.5087 26.3999 35.127 26.8561 33.9019Z" fill="#91765B"/>
<path fill-rule="evenodd" clip-rule="evenodd" d="M31.03 20.4902C31.03 20.4902 30.8871 20.0059 31.0624 19.6508C31.1857 19.4232 31.3509 19.2206 31.5495 19.0536C31.5495 19.0536 31.6777 19.6185 31.5608 19.9833C31.5135 20.0996 31.4422 20.2047 31.3516 20.292C31.2611 20.3793 31.1532 20.4468 31.0348 20.4902H31.03Z" fill="#66BC98"/>
<path fill-rule="evenodd" clip-rule="evenodd" d="M30.8806 18.2594C31.0826 18.0979 31.3298 18.0021 31.5884 17.985C31.965 17.985 32.0754 18.0576 32.0754 18.0576C32.0754 18.0576 31.767 18.3918 31.452 18.4014C31.2534 18.4043 31.0575 18.3553 30.8838 18.2594H30.8806Z" fill="#9AC97D"/>
<path fill-rule="evenodd" clip-rule="evenodd" d="M29.8383 18.0544C29.8383 18.0544 30.0883 17.5782 30.0282 17.2247C29.9682 16.8712 29.5834 16.4951 29.5834 16.4951C29.5834 16.4951 29.2896 16.9794 29.4211 17.4313C29.4785 17.6837 29.6284 17.9059 29.8415 18.0544H29.8383Z" fill="#9AC97D"/>
<path fill-rule="evenodd" clip-rule="evenodd" d="M27.5494 16.1546C27.5494 16.1546 28.0478 16.0642 28.1744 15.7397C28.301 15.4153 28.3107 14.5953 28.3107 14.5953C28.3107 14.5953 27.7166 14.9053 27.6062 15.467C27.4958 16.0287 27.5494 16.1546 27.5494 16.1546Z" fill="#9AC97D"/>
<path fill-rule="evenodd" clip-rule="evenodd" d="M30.5674 16.4565C30.5674 16.4565 30.7005 15.7059 31.0723 15.5009C31.2857 15.3774 31.5268 15.3092 31.7736 15.3024C31.7736 15.3024 31.694 15.9303 31.3174 16.216C31.1052 16.384 30.8382 16.4685 30.5674 16.4533V16.4565Z" fill="#9AC97D"/>
<path fill-rule="evenodd" clip-rule="evenodd" d="M32.9277 15.8124C32.7186 15.5782 32.5704 15.2967 32.4958 14.9924C32.3903 14.5082 32.7036 13.9998 32.7036 13.9998C32.9717 14.2528 33.1476 14.5872 33.2036 14.9505C33.2274 15.1056 33.2148 15.264 33.167 15.4135C33.1191 15.563 33.0372 15.6995 32.9277 15.8124Z" fill="#9AC97D"/>
<path fill-rule="evenodd" clip-rule="evenodd" d="M33.6922 14.3645C33.6251 14.1821 33.6251 13.982 33.6922 13.7996C33.7578 13.5849 33.8767 13.39 34.038 13.233C34.038 13.233 34.2182 13.6608 34.1387 13.9626C34.0591 14.2645 33.6922 14.3645 33.6922 14.3645Z" fill="#9AC97D"/>
<path fill-rule="evenodd" clip-rule="evenodd" d="M29.3336 14.8875C29.3336 14.8875 29.642 14.0578 29.9618 13.7189C30.2816 13.3799 31.3223 13.2346 31.3223 13.2346C31.2408 13.7183 30.9795 14.1539 30.5901 14.4549C30.2258 14.7261 29.7853 14.8774 29.3303 14.8875H29.3336Z" fill="#9AC97D"/>
<path fill-rule="evenodd" clip-rule="evenodd" d="M31.8091 13.7932C31.8492 13.5548 31.9248 13.3236 32.0331 13.1072C32.1711 12.8957 32.7718 12.673 32.7718 12.673C32.7627 12.9666 32.6427 13.2462 32.4357 13.4558C32.2581 13.618 32.0428 13.7339 31.8091 13.7932Z" fill="#9AC97D"/>
<path fill-rule="evenodd" clip-rule="evenodd" d="M28.9876 13.5817C28.9948 13.3104 28.9519 13.0401 28.8609 12.7843C28.7438 12.5835 28.5759 12.4165 28.3739 12.3C28.3739 12.3 28.2408 12.8763 28.4746 13.2572C28.7084 13.6382 28.9843 13.58 28.9843 13.58L28.9876 13.5817Z" fill="#9AC97D"/>
<path fill-rule="evenodd" clip-rule="evenodd" d="M27.077 13.6382C27.0801 13.5313 27.0598 13.4249 27.0175 13.3265C26.9752 13.2281 26.9118 13.14 26.8318 13.0684C26.6684 12.9374 26.4748 12.8487 26.2685 12.8102C26.2623 12.9342 26.2808 13.0581 26.3229 13.175C26.3649 13.2919 26.4297 13.3994 26.5136 13.4913C26.5875 13.5611 26.6778 13.6111 26.7763 13.6368C26.8748 13.6624 26.9782 13.6629 27.077 13.6382Z" fill="#9AC97D"/>
<path fill-rule="evenodd" clip-rule="evenodd" d="M25.3626 21.775C25.3626 21.775 24.8626 21.6523 24.6466 21.3279C24.5089 21.1092 24.4142 20.8666 24.3674 20.6128C24.3674 20.6128 24.9242 20.7855 25.1791 21.068C25.2563 21.1672 25.3121 21.2812 25.3428 21.4029C25.3736 21.5246 25.3786 21.6513 25.3577 21.775H25.3626Z" fill="#66BC98"/>
<path fill-rule="evenodd" clip-rule="evenodd" d="M26.9145 18.5903C26.8746 18.336 26.9142 18.0756 27.0282 17.8445C27.2181 17.5217 27.335 17.4652 27.335 17.4652C27.335 17.4652 27.4714 17.8962 27.3236 18.1722C27.2259 18.3443 27.0849 18.4884 26.9145 18.5903Z" fill="#9AC97D"/>
<path fill-rule="evenodd" clip-rule="evenodd" d="M34.0624 15.9383C34.0226 15.6835 34.0622 15.4227 34.1761 15.191C34.3644 14.8665 34.4862 14.8181 34.4862 14.8181C34.4862 14.8181 34.6209 15.2507 34.4732 15.5267C34.3758 15.6986 34.2354 15.8426 34.0657 15.9448L34.0624 15.9383Z" fill="#9AC97D"/>
<path fill-rule="evenodd" clip-rule="evenodd" d="M26.1953 15.4638C26.1553 15.2095 26.195 14.9492 26.3089 14.7181C26.4973 14.3952 26.6158 14.3387 26.6158 14.3387C26.6158 14.3387 26.7505 14.7697 26.6044 15.0457C26.5072 15.2183 26.3661 15.3624 26.1953 15.4638Z" fill="#9AC97D"/>
<path fill-rule="evenodd" clip-rule="evenodd" d="M24.0965 19.1004C24.0965 19.1004 23.8075 18.6468 23.4698 18.5209C23.1322 18.3951 22.6111 18.5403 22.6111 18.5403C22.6111 18.5403 22.8789 19.0246 23.3432 19.1504C23.5918 19.2278 23.8605 19.2099 24.0965 19.1004Z" fill="#66BC98"/>
<path fill-rule="evenodd" clip-rule="evenodd" d="M20.1435 20.1932C20.1435 20.1932 19.9568 19.7251 19.6126 19.6605C19.2685 19.596 18.4568 19.7509 18.4568 19.7509C18.4568 19.7509 18.8789 20.2707 19.4535 20.2674C20.0282 20.2642 20.1435 20.19 20.1435 20.19V20.1932Z" fill="#66BC98"/>
<path fill-rule="evenodd" clip-rule="evenodd" d="M24.965 17.7235C24.965 17.7235 24.3774 17.2393 24.3838 16.8115C24.3843 16.5662 24.4462 16.3249 24.564 16.1094C24.564 16.1094 25.0722 16.4919 25.1322 16.96C25.1742 17.2257 25.1164 17.4974 24.9699 17.7235H24.965Z" fill="#9AC97D"/>
<path fill-rule="evenodd" clip-rule="evenodd" d="M25.658 15.8431C25.3499 15.9058 25.0311 15.8925 24.7294 15.8044C24.257 15.6559 23.968 15.1297 23.968 15.1297C24.3225 15.0258 24.7015 15.0417 25.046 15.1749C25.1929 15.2318 25.3246 15.3218 25.4307 15.4377C25.5369 15.5536 25.6147 15.6923 25.658 15.8431Z" fill="#9AC97D"/>
<path fill-rule="evenodd" clip-rule="evenodd" d="M25.2084 14.1838C25.0177 14.1495 24.8452 14.0495 24.7214 13.9013C24.5655 13.738 24.4537 13.5381 24.3967 13.3202C24.3967 13.3202 24.8594 13.3799 25.0818 13.5978C25.3042 13.8157 25.2084 14.1838 25.2084 14.1838Z" fill="#9AC97D"/>
<path fill-rule="evenodd" clip-rule="evenodd" d="M23.197 16.5387C23.197 16.5387 22.6288 15.8576 22.494 15.4088C22.3593 14.9601 22.7506 13.9949 22.7506 13.9949C23.1314 14.3076 23.38 14.7512 23.447 15.2378C23.5017 15.6871 23.4131 16.1421 23.1937 16.5387H23.197Z" fill="#9AC97D"/>
<path fill-rule="evenodd" clip-rule="evenodd" d="M22.2004 17.3911C22.0125 17.2372 21.8484 17.0566 21.7133 16.8552C21.5981 16.6308 21.7133 16.0029 21.7133 16.0029C21.9645 16.157 22.1477 16.3997 22.2263 16.6825C22.2799 16.9166 22.2732 17.1603 22.2069 17.3911H22.2004Z" fill="#9AC97D"/>
<path fill-rule="evenodd" clip-rule="evenodd" d="M21.3123 17.8301C21.0792 17.688 20.8216 17.59 20.5526 17.5411C20.3202 17.5441 20.0925 17.607 19.8918 17.7235C19.8918 17.7235 20.3285 18.1254 20.7766 18.1142C21.2247 18.1029 21.3123 17.8365 21.3123 17.8365V17.8301Z" fill="#9AC97D"/>
<path fill-rule="evenodd" clip-rule="evenodd" d="M21.7847 19.06C21.5514 18.9178 21.2939 18.8193 21.0249 18.7694C20.7926 18.771 20.5647 18.8316 20.3625 18.9453C20.3625 18.9453 20.7976 19.3489 21.2473 19.3376C21.697 19.3263 21.783 19.06 21.783 19.06H21.7847Z" fill="#66BC98"/>
<path fill-rule="evenodd" clip-rule="evenodd" d="M21.4032 20.7532C21.3114 20.697 21.2085 20.6611 21.1015 20.648C20.9945 20.635 20.8859 20.645 20.7831 20.6774C20.5872 20.7527 20.4131 20.8753 20.2766 21.0341C20.2766 21.0341 20.6451 21.2762 20.9925 21.1632C21.0903 21.1351 21.1793 21.0827 21.2511 21.011C21.323 20.9393 21.3753 20.8506 21.4032 20.7532Z" fill="#66BC98"/>
<path fill-rule="evenodd" clip-rule="evenodd" d="M18.8593 23.0986C18.7678 23.0423 18.6652 23.0063 18.5584 22.9932C18.4516 22.9802 18.3433 22.9902 18.2408 23.0227C18.0452 23.0964 17.8707 23.2167 17.7327 23.373C17.7327 23.373 18.1028 23.6151 18.4502 23.5037C18.5477 23.4748 18.6362 23.4219 18.7078 23.35C18.7793 23.278 18.8314 23.1894 18.8593 23.0921V23.0986Z" fill="#66BC98"/>
<path fill-rule="evenodd" clip-rule="evenodd" d="M21.4032 22.553C21.3114 22.4968 21.2084 22.461 21.1014 22.4482C20.9943 22.4354 20.8857 22.4458 20.7831 22.4788C20.5871 22.5533 20.413 22.6753 20.2766 22.8339C20.2766 22.8339 20.6451 23.076 20.9925 22.9646C21.0903 22.936 21.1792 22.8832 21.251 22.8112C21.3228 22.7393 21.3752 22.6505 21.4032 22.553Z" fill="#66BC98"/>
<path fill-rule="evenodd" clip-rule="evenodd" d="M26.3693 23.1793C26.1278 23.0863 25.9209 22.9217 25.7767 22.708C25.5884 22.3851 25.5997 22.2544 25.5997 22.2544C25.5997 22.2544 26.0445 22.3529 26.2069 22.6176C26.3096 22.7874 26.3656 22.9811 26.3693 23.1793Z" fill="#66BC98"/>
<path fill-rule="evenodd" clip-rule="evenodd" d="M26.9 25.6038C26.9 25.6038 26.3594 25.6263 26.0883 25.8539C25.8172 26.0815 25.6694 26.6013 25.6694 26.6013C25.6694 26.6013 26.2295 26.6142 26.5656 26.2785C26.7579 26.1031 26.8773 25.8623 26.9 25.6038Z" fill="#1683A8"/>
<path fill-rule="evenodd" clip-rule="evenodd" d="M24.8466 26.4108C24.8466 26.4108 24.4212 26.69 24.4375 27.037C24.4537 27.3841 24.7621 28.1427 24.7621 28.1427C24.7621 28.1427 25.1859 27.6246 25.0641 27.0661C24.9424 26.5076 24.8433 26.4108 24.8433 26.4108H24.8466Z" fill="#1683A8"/>
<path fill-rule="evenodd" clip-rule="evenodd" d="M20.1369 22.2285C20.1369 22.2285 19.4161 22.49 19.0509 22.2721C18.8377 22.1493 18.6586 21.9757 18.5298 21.7669C18.5298 21.7669 19.1174 21.5199 19.5541 21.7023C19.8068 21.8007 20.0142 21.9879 20.1369 22.2285Z" fill="#66BC98"/>
<path fill-rule="evenodd" clip-rule="evenodd" d="M23.5103 22.5304C23.4116 22.8273 23.2403 23.0952 23.0119 23.3101C22.6466 23.6426 22.0378 23.6329 22.0378 23.6329C22.1256 23.2747 22.3314 22.9559 22.6223 22.7274C22.7454 22.6295 22.8896 22.5612 23.0436 22.5279C23.1977 22.4946 23.3574 22.4971 23.5103 22.5353V22.5304Z" fill="#66BC98"/>
<path fill-rule="evenodd" clip-rule="evenodd" d="M23.189 20.8565C23.0658 21.0055 22.893 21.1057 22.702 21.139C22.4824 21.19 22.2535 21.185 22.0364 21.1245C22.0364 21.1245 22.3189 20.7548 22.6208 20.6725C22.9228 20.5902 23.1939 20.8565 23.1939 20.8565H23.189Z" fill="#66BC98"/>
<path fill-rule="evenodd" clip-rule="evenodd" d="M20.2764 25.176C20.2764 25.176 19.3998 25.3261 18.9452 25.2196C18.4907 25.113 17.8413 24.2915 17.8413 24.2915C18.3021 24.1186 18.8115 24.1244 19.2683 24.3076C19.6874 24.4851 20.04 24.7888 20.2764 25.176Z" fill="#1683A8"/>
<path fill-rule="evenodd" clip-rule="evenodd" d="M21.0897 27.0855C20.8619 27.1701 20.6229 27.2212 20.3803 27.2372C20.1271 27.2243 19.6335 26.8176 19.6335 26.8176C19.8929 26.6782 20.1957 26.6418 20.481 26.7159C20.7117 26.7867 20.9209 26.9138 21.0897 27.0855Z" fill="#1683A8"/>
<path fill-rule="evenodd" clip-rule="evenodd" d="M22.8513 27.447C22.6117 27.5767 22.3982 27.749 22.2214 27.9555C22.1061 28.1555 22.0451 28.3819 22.0444 28.6124C22.0444 28.6124 22.611 28.4381 22.8269 28.0475C23.0428 27.6568 22.8513 27.447 22.8513 27.447Z" fill="#1683A8"/>
<path fill-rule="evenodd" clip-rule="evenodd" d="M33.2524 16.3854C33.2524 16.3854 33.3952 16.8696 33.2199 17.2264C33.0968 17.4541 32.9316 17.6567 32.7329 17.8236C32.7329 17.8236 32.6046 17.2586 32.7215 16.8938C32.7695 16.7775 32.8411 16.6723 32.9319 16.5848C33.0227 16.4973 33.1307 16.4294 33.2491 16.3854H33.2524Z" fill="#9AC97D"/>
<path fill-rule="evenodd" clip-rule="evenodd" d="M28.5233 27.029C28.3217 27.1903 28.0752 27.2861 27.8171 27.3034C27.4388 27.3034 27.3301 27.2291 27.3301 27.2291C27.3301 27.2291 27.6385 26.8966 27.9518 26.8853C28.1506 26.8835 28.3463 26.933 28.52 27.029H28.5233Z" fill="#1683A8"/>
<path fill-rule="evenodd" clip-rule="evenodd" d="M22.9292 26.393C22.7272 26.5545 22.4801 26.6503 22.2214 26.6674C21.8448 26.6674 21.7344 26.5948 21.7344 26.5948C21.7344 26.5948 22.0428 26.2607 22.3561 26.251C22.5553 26.2479 22.7518 26.2968 22.9259 26.393H22.9292Z" fill="#1683A8"/>
<path fill-rule="evenodd" clip-rule="evenodd" d="M21.908 24.9064C21.7062 25.0687 21.459 25.1651 21.2002 25.1824C20.8235 25.1824 20.7131 25.1082 20.7131 25.1082C20.7131 25.1082 21.0216 24.774 21.3349 24.7644C21.534 24.7617 21.7304 24.8107 21.9047 24.9064H21.908Z" fill="#1683A8"/>
<path fill-rule="evenodd" clip-rule="evenodd" d="M26.9341 21.2101C26.9341 21.2101 27.4341 21.3328 27.65 21.6572C27.7869 21.8762 27.8816 22.1187 27.9292 22.3723C27.9292 22.3723 27.3724 22.1996 27.1175 21.9171C27.0403 21.8179 26.9845 21.7038 26.9538 21.5822C26.9231 21.4605 26.918 21.3338 26.9389 21.2101H26.9341Z" fill="#66BC98"/>
<path fill-rule="evenodd" clip-rule="evenodd" d="M32.3028 25.8474C32.3427 26.1022 32.303 26.3631 32.1892 26.5948C32.0008 26.9176 31.8823 26.9741 31.8823 26.9741C31.8823 26.9741 31.746 26.5415 31.8937 26.2671C31.9911 26.0943 32.1321 25.9496 32.3028 25.8474Z" fill="#1683A8"/>
<path fill-rule="evenodd" clip-rule="evenodd" d="M33.2393 26.6191C33.4253 26.7985 33.5507 27.0308 33.5981 27.2841C33.6436 27.6553 33.5835 27.7683 33.5835 27.7683C33.5835 27.7683 33.2134 27.5036 33.1647 27.1953C33.139 26.9995 33.1647 26.8004 33.2393 26.6174V26.6191Z" fill="#1683A8"/>
<path fill-rule="evenodd" clip-rule="evenodd" d="M36.5722 26.1768C36.7576 26.3566 36.8828 26.5888 36.931 26.8418C36.9765 27.2146 36.9148 27.326 36.9148 27.326C36.9148 27.326 36.5446 27.0613 36.4976 26.753C36.4712 26.5572 36.497 26.358 36.5722 26.1752V26.1768Z" fill="#1683A8"/>
<path fill-rule="evenodd" clip-rule="evenodd" d="M36.2915 23.2567C36.2915 23.2567 36.7444 23.4811 37.0415 23.2971C37.3386 23.113 37.8403 22.4625 37.8403 22.4625C37.8403 22.4625 37.1779 22.356 36.7526 22.7402C36.3272 23.1243 36.2915 23.2567 36.2915 23.2567Z" fill="#66BC98"/>
<path fill-rule="evenodd" clip-rule="evenodd" d="M39.6145 23.9976C39.6145 23.9976 40.0674 24.2203 40.3645 24.0379C40.6616 23.8555 41.1632 23.2018 41.1632 23.2018C41.1632 23.2018 40.5009 23.0969 40.0755 23.4811C39.6502 23.8652 39.6145 23.9976 39.6145 23.9976Z" fill="#66BC98"/>
<path fill-rule="evenodd" clip-rule="evenodd" d="M34.7849 26.6383C34.7849 26.6383 35.3709 27.1225 35.3644 27.5519C35.3636 27.7971 35.3017 28.0384 35.1842 28.254C35.1842 28.254 34.6761 27.8715 34.616 27.4034C34.5738 27.1372 34.6316 26.8649 34.7783 26.6383H34.7849Z" fill="#1683A8"/>
<path fill-rule="evenodd" clip-rule="evenodd" d="M38.9214 26.4108C38.9214 26.4108 39.6828 26.4963 39.9117 26.853C40.0477 27.0578 40.1303 27.293 40.1519 27.5374C40.1519 27.5374 39.5156 27.4971 39.2055 27.1404C39.0236 26.9403 38.9224 26.6805 38.9214 26.4108Z" fill="#1683A8"/>
<path fill-rule="evenodd" clip-rule="evenodd" d="M37.9863 26.7513C38.1738 26.9056 38.3378 27.0861 38.4733 27.2872C38.5885 27.5132 38.4814 28.1411 38.4814 28.1411C38.23 27.987 38.0462 27.7444 37.9668 27.4616C37.9141 27.2269 37.9208 26.9828 37.9863 26.7513Z" fill="#1683A8"/>
<path fill-rule="evenodd" clip-rule="evenodd" d="M38.905 25.2518C39.1385 25.3931 39.396 25.491 39.6648 25.5407C39.8982 25.5401 40.1275 25.4795 40.3304 25.3648C40.3304 25.3648 39.8953 24.9612 39.4473 24.9725C38.9992 24.9838 38.9115 25.2518 38.9115 25.2518H38.905Z" fill="#1683A8"/>
<path fill-rule="evenodd" clip-rule="evenodd" d="M38.8513 22.7176C38.9431 22.7739 39.0461 22.8096 39.1532 22.8225C39.2603 22.8353 39.3689 22.8248 39.4715 22.7919C39.6672 22.7168 39.8411 22.5948 39.978 22.4368C39.978 22.4368 39.6095 22.1947 39.262 22.306C39.1641 22.3344 39.0751 22.3871 39.0033 22.4591C38.9314 22.5311 38.8791 22.62 38.8513 22.7176Z" fill="#66BC98"/>
<path fill-rule="evenodd" clip-rule="evenodd" d="M35.3724 18.6807C35.3724 18.6807 35.7296 18.3111 36.1209 18.2885C36.3799 18.2794 36.6382 18.3194 36.8822 18.4063C36.8822 18.4063 36.4536 18.7986 36.0705 18.8809C35.9456 18.8978 35.8184 18.8887 35.6971 18.8542C35.5759 18.8198 35.4631 18.7607 35.366 18.6807H35.3724Z" fill="#66BC98"/>
<path fill-rule="evenodd" clip-rule="evenodd" d="M34.5186 21.4167C34.4133 21.6516 34.2375 21.8484 34.0153 21.98C33.6793 22.1511 33.551 22.1334 33.551 22.1334C33.551 22.1334 33.6728 21.6975 33.9471 21.5458C34.123 21.4538 34.32 21.4093 34.5186 21.4167Z" fill="#66BC98"/>
<path fill-rule="evenodd" clip-rule="evenodd" d="M33.0625 18.4854C33.0152 18.7388 32.8905 18.9715 32.7054 19.152C32.4197 19.3957 32.2898 19.4086 32.2898 19.4086C32.2898 19.4086 32.306 18.9567 32.5365 18.7452C32.6862 18.6146 32.8674 18.525 33.0625 18.4854Z" fill="#66BC98"/>
<path fill-rule="evenodd" clip-rule="evenodd" d="M39.2915 20.7484C39.2445 21.002 39.1198 21.2348 38.9344 21.4151C38.6487 21.6588 38.5188 21.6717 38.5188 21.6717C38.5188 21.6717 38.535 21.2197 38.7655 21.0083C38.9152 20.8776 39.0965 20.7881 39.2915 20.7484Z" fill="#66BC98"/>
<path fill-rule="evenodd" clip-rule="evenodd" d="M40.1584 19.1844C40.0106 19.3961 39.8 19.5569 39.5561 19.6444C39.1941 19.7493 39.0691 19.7089 39.0691 19.7089C39.0691 19.7089 39.2704 19.3038 39.5691 19.2053C39.7593 19.148 39.9613 19.1408 40.1551 19.1844H40.1584Z" fill="#66BC98"/>
<path fill-rule="evenodd" clip-rule="evenodd" d="M33.5251 19.9461C33.5251 19.9461 34.0641 19.9235 34.3368 19.6959C34.6096 19.4683 34.7492 18.947 34.7492 18.947C34.7492 18.947 34.1875 18.9325 33.8514 19.2698C33.6628 19.4462 33.547 19.6862 33.5268 19.9429L33.5251 19.9461Z" fill="#66BC98"/>
<path fill-rule="evenodd" clip-rule="evenodd" d="M35.0445 18.14C35.0445 18.14 35.4602 17.8624 35.4602 17.5137C35.4602 17.1651 35.1355 16.4097 35.1355 16.4097C35.1355 16.4097 34.7118 16.9278 34.8335 17.4863C34.9553 18.0448 35.0543 18.1319 35.0543 18.1319L35.0445 18.14Z" fill="#9AC97D"/>
<path fill-rule="evenodd" clip-rule="evenodd" d="M36.8823 20.8518C36.9822 20.5555 37.1533 20.2878 37.3807 20.0721C37.746 19.7396 38.3547 19.7493 38.3547 19.7493C38.2677 20.1066 38.0638 20.4251 37.7752 20.6548C37.6521 20.7527 37.5079 20.821 37.3538 20.8543C37.1998 20.8876 37.0401 20.8851 36.8872 20.8469L36.8823 20.8518Z" fill="#66BC98"/>
<path fill-rule="evenodd" clip-rule="evenodd" d="M39.7249 21.6185C39.7249 21.6185 40.1047 20.8114 40.4521 20.5096C40.7995 20.2077 41.8499 20.1448 41.8499 20.1448C41.7276 20.6192 41.4311 21.031 41.0187 21.2989C40.6306 21.5393 40.1762 21.6523 39.72 21.6217L39.7249 21.6185Z" fill="#66BC98"/>
<path fill-rule="evenodd" clip-rule="evenodd" d="M38.0723 18.0464C38.3001 17.9619 38.5391 17.9107 38.7817 17.8947C39.0349 17.9076 39.5301 18.3143 39.5301 18.3143C39.2702 18.4536 38.9671 18.4904 38.681 18.4176C38.4504 18.3459 38.2412 18.2183 38.0723 18.0464Z" fill="#9AC97D"/>
<path fill-rule="evenodd" clip-rule="evenodd" d="M37.0398 17.1053C37.2798 16.975 37.4933 16.8015 37.6697 16.5937C37.7833 16.3971 37.8442 16.1747 37.8466 15.948C37.8466 15.948 37.28 16.1207 37.0641 16.513C36.8482 16.9052 37.0398 17.1134 37.0398 17.1134V17.1053Z" fill="#9AC97D"/>
<path fill-rule="evenodd" clip-rule="evenodd" d="M35.543 15.6817C35.6379 15.6307 35.7206 15.5598 35.7853 15.474C35.8501 15.3882 35.8953 15.2894 35.918 15.1845C35.9514 14.9787 35.9324 14.7678 35.8628 14.5712C35.8628 14.5712 35.4667 14.7665 35.3904 15.1216C35.3663 15.2202 35.3677 15.3232 35.3944 15.4211C35.421 15.519 35.4722 15.6087 35.543 15.6817Z" fill="#9AC97D"/>
</g>
</g>
<defs>
<clipPath id="clip0_963_720">
<rect width="35" height="36" fill="white" transform="translate(12 12)"/>
</clipPath>
</defs>
</svg>
